<?xml version="1.0" encoding="UTF-8"?> <svg xmlns="http://www.w3.org/2000/svg" width="26" height="26" viewBox="0 0 26 26" fill="none"><path d="M13.2002 24.7998C15.5736 24.7998 17.8936 24.096 19.867 22.7774C21.8404 21.4589 23.3785 19.5847 24.2867 17.392C25.195 15.1993 25.4326 12.7865 24.9696 10.4587C24.5066 8.13095 23.3637 5.99276 21.6855 4.31453C20.0072 2.6363 17.869 1.49341 15.5413 1.03039C13.2135 0.567364 10.8007 0.805004 8.60799 1.71326C6.41528 2.62151 4.54114 4.15958 3.22256 6.13297C1.90398 8.10635 1.2002 10.4264 1.2002 12.7998C1.2002 14.7838 1.6802 16.6531 2.53353 18.3025L1.2002 24.7998L7.69753 23.4665C9.34553 24.3185 11.2175 24.7998 13.2002 24.7998Z" stroke="#FFFEFA" stroke-width="1.6" stroke-linecap="round" stroke-linejoin="round"></path></svg> 