<?xml version="1.0" encoding="UTF-8"?> <svg xmlns="http://www.w3.org/2000/svg" width="309" height="40" viewBox="0 0 309 40" fill="none"><path fill-rule="evenodd" clip-rule="evenodd" d="M232.961 0.160149C189.518 0.614872 177.097 0.910678 152.993 2.06539C128.014 3.26203 110.138 4.46154 81.774 6.84429C75.1986 7.39665 68.158 7.92087 59.9042 8.47247C29.5843 10.4987 23.6842 11.0386 13.8826 12.6833C9.02613 13.4984 4.82619 14.0624 2.47224 14.2162C0.379393 14.3527 0 14.4386 0 14.7762C0 15.0745 3.34722 15.3358 5.178 15.1804C5.8341 15.1248 7.61164 14.9887 9.12826 14.8782C10.6449 14.7676 13.9824 14.4706 16.545 14.2183C22.5793 13.6238 25.4766 13.4363 35.8474 12.9693C53.2818 12.1844 66.4522 11.43 82.6297 10.2898C88.5916 9.86957 96.5075 9.31166 100.221 9.04993C128.382 7.06466 162.781 5.29439 183.801 4.74892C209.309 4.08665 288.497 3.50116 287.16 3.98441C286.63 4.17607 277.568 5.6015 272.136 6.34782C267.146 7.03345 258.81 8.02235 248.555 9.14508C243.691 9.67773 237.016 10.4149 233.721 10.7832C221.344 12.1673 217.267 12.5966 210.235 13.2569C177.839 16.2987 156.44 18.9493 126.655 23.6091C108.951 26.3788 94.4394 29.5584 78.2455 34.2165C69.0385 36.8648 68.1415 37.3352 69.0477 39.0402C69.6374 40.1495 74.2829 40.2933 83.6527 39.492C100.776 38.0279 116.867 36.8923 132.455 36.048C142.232 35.5184 143.527 35.4296 153.469 34.6075C157.182 34.3005 163.6 33.8517 167.732 33.6105L175.244 33.1719L165.259 32.999C150.13 32.7369 133.901 32.7528 128.556 33.035C110.861 33.9693 101.237 34.6884 85.5156 36.2506C81.7684 36.623 78.6072 36.8956 78.4905 36.8566C77.3646 36.4786 102.564 30.768 114.585 28.6769C141.722 23.956 169.667 20.4337 212.612 16.3207C216.535 15.9451 224.408 15.1233 230.108 14.4947C235.809 13.866 244.794 12.8761 250.076 12.2946C270.407 10.057 276.464 9.22358 296.003 5.97543C308.517 3.895 308.584 3.8772 308.925 2.50901C309.3 1.00469 308.297 0.322131 305.425 0.127031C302.696 -0.0584957 251.613 -0.0351424 232.961 0.160149ZM176.054 33.02C176.291 33.0658 176.633 33.0641 176.815 33.0162C176.997 32.9683 176.803 32.9308 176.385 32.9329C175.966 32.935 175.817 32.9743 176.054 33.02Z" fill="#FA4604"></path></svg> 