<?xml version="1.0" encoding="UTF-8"?> <svg xmlns="http://www.w3.org/2000/svg" width="25" height="22" viewBox="0 0 25 22" fill="none"><path d="M23.9353 0.785847C23.83 0.694937 23.702 0.634493 23.5649 0.611038C23.4278 0.587582 23.2869 0.602005 23.1574 0.652751L1.04825 9.30508C0.779336 9.4103 0.551815 9.59993 0.399861 9.84549C0.247906 10.091 0.179719 10.3793 0.205542 10.6669C0.231364 10.9545 0.349802 11.226 0.543067 11.4405C0.736332 11.6551 0.993993 11.8012 1.27735 11.8568L7.18157 13.0165V19.5829C7.1817 19.8873 7.27279 20.1848 7.44315 20.4371C7.61352 20.6893 7.85539 20.885 8.13772 20.9988C8.42004 21.1127 8.72995 21.1395 9.02767 21.076C9.32539 21.0125 9.59732 20.8614 9.80858 20.6422L12.7149 17.6279L17.251 21.6044C17.528 21.8495 17.8849 21.9849 18.2547 21.9852C18.4162 21.9849 18.5767 21.9595 18.7304 21.9099C18.9824 21.8302 19.2091 21.6858 19.3878 21.4911C19.5666 21.2964 19.6913 21.0583 19.7493 20.8004L24.1808 1.53533C24.2119 1.39989 24.2055 1.25852 24.1623 1.12645C24.119 0.994378 24.0405 0.876614 23.9353 0.785847ZM1.51409 10.5684C1.50991 10.5571 1.50991 10.5447 1.51409 10.5335C1.51901 10.5297 1.52454 10.5267 1.53045 10.5248L18.954 3.70414L7.6845 11.7772L1.53045 10.5728L1.51409 10.5684ZM8.866 19.7324C8.83593 19.7636 8.79726 19.7851 8.7549 19.7943C8.71254 19.8034 8.66842 19.7997 8.62817 19.7837C8.58791 19.7676 8.55334 19.74 8.52886 19.7042C8.50438 19.6685 8.4911 19.6262 8.49072 19.5829V13.922L11.7297 16.7584L8.866 19.7324ZM18.474 20.5048C18.466 20.5417 18.4481 20.5757 18.4224 20.6033C18.3967 20.631 18.364 20.6512 18.3278 20.6619C18.2909 20.6748 18.2511 20.6776 18.2127 20.67C18.1743 20.6623 18.1387 20.6444 18.1096 20.6182L8.88782 12.5288L22.564 2.72774L18.474 20.5048Z" fill="#FFFEFA"></path></svg> 