<?xml version="1.0" encoding="UTF-8"?> <svg xmlns="http://www.w3.org/2000/svg" width="55" height="55" viewBox="0 0 55 55" fill="none"><path fill-rule="evenodd" clip-rule="evenodd" d="M27.5 55C42.6878 55 55 42.6878 55 27.5C55 12.3122 42.6878 0 27.5 0C12.3122 0 0 12.3122 0 27.5C0 42.6878 12.3122 55 27.5 55ZM37.5504 26.5951C37.2665 26.1143 36.8595 25.7211 36.3728 25.4577L23.3918 18.2722C21.3016 17.1162 18.7342 18.6207 18.7342 21.0028V35.3729C18.7342 37.754 21.3016 39.2595 23.3918 38.1015L36.3728 30.917C36.8595 30.6536 37.2665 30.2604 37.5504 29.7796C37.8342 29.2987 37.9842 28.7483 37.9842 28.1873C37.9842 27.6264 37.8342 27.076 37.5504 26.5951Z" fill="#FFFEFA"></path></svg> 