<?xml version="1.0" encoding="UTF-8"?> <svg xmlns="http://www.w3.org/2000/svg" width="47" height="24" viewBox="0 0 47 24" fill="none"><path fill-rule="evenodd" clip-rule="evenodd" d="M44.8245 3.28682C35.9514 19.786 18.2266 26.4939 1.76415 17.2052C1.21611 16.8959 0.521132 17.0893 0.211832 17.6306C-0.097468 18.1815 0.0958653 18.8774 0.643906 19.1867C18.2895 29.152 37.3201 22.0478 46.8311 4.36937C47.1288 3.81843 46.921 3.12241 46.3671 2.82277C45.8133 2.53281 45.1222 2.73588 44.8245 3.28682Z" fill="#D6D6D6"></path><path d="M15.6175 10.1286C17.4504 10.1286 18.9363 8.64279 18.9363 6.80991C18.9363 4.97703 17.4504 3.49121 15.6175 3.49121C13.7846 3.49121 12.2988 4.97703 12.2988 6.80991C12.2988 8.64279 13.7846 10.1286 15.6175 10.1286Z" fill="#D6D6D6"></path><path d="M29.3564 6.59849C31.1534 6.59849 32.6103 5.14171 32.6103 3.34465C32.6103 1.5476 31.1534 0.0908203 29.3564 0.0908203C27.5593 0.0908203 26.1025 1.5476 26.1025 3.34465C26.1025 5.14171 27.5593 6.59849 29.3564 6.59849Z" fill="#D6D6D6"></path></svg> 