<?xml version="1.0" encoding="UTF-8"?> <svg xmlns="http://www.w3.org/2000/svg" width="64" height="64" viewBox="0 0 64 64" fill="none"><path fill-rule="evenodd" clip-rule="evenodd" d="M32 64C49.6731 64 64 49.6731 64 32C64 14.3269 49.6731 0 32 0C14.3269 0 0 14.3269 0 32C0 49.6731 14.3269 64 32 64ZM44.1624 30.9364C43.8321 30.3768 43.3584 29.9193 42.7922 29.6128L27.687 21.2515C25.2547 19.9063 22.2672 21.6571 22.2672 24.429V41.1505C22.2672 43.9212 25.2547 45.6731 27.687 44.3256L42.7922 35.9654C43.3584 35.6589 43.8321 35.2014 44.1624 34.6419C44.4927 34.0823 44.6672 33.4419 44.6672 32.7891C44.6672 32.1364 44.4927 31.4959 44.1624 30.9364Z" fill="#FA4604"></path></svg> 