<?xml version="1.0" encoding="UTF-8"?> <svg xmlns="http://www.w3.org/2000/svg" width="41" height="41" viewBox="0 0 41 41" fill="none"><path fill-rule="evenodd" clip-rule="evenodd" d="M20.5 41C31.8218 41 41 31.8218 41 20.5C41 9.17816 31.8218 0 20.5 0C9.17816 0 0 9.17816 0 20.5C0 31.8218 9.17816 41 20.5 41ZM28.2665 19.8185C28.0549 19.46 27.7514 19.1669 27.3887 18.9706L17.7119 13.6141C16.1538 12.7523 14.2399 13.8739 14.2399 15.6497V26.3619C14.2399 28.1369 16.1538 29.2592 17.7119 28.3959L27.3887 23.0402C27.7514 22.8439 28.0549 22.5508 28.2665 22.1923C28.4781 21.8339 28.5899 21.4236 28.5899 21.0054C28.5899 20.5872 28.4781 20.1769 28.2665 19.8185Z" fill="#FFFEFA"></path></svg> 