<?xml version="1.0" encoding="UTF-8"?> <svg xmlns="http://www.w3.org/2000/svg" width="32" height="32" viewBox="0 0 32 32" fill="none"><path fill-rule="evenodd" clip-rule="evenodd" d="M5 0C2.23858 0 0 2.23858 0 5V27C0 29.7614 2.23858 32 5 32H27C29.7614 32 32 29.7614 32 27V5C32 2.23858 29.7614 0 27 0H5ZM9.00475 9.00382C9.64775 8.36107 10.5197 8 11.4289 8H20.5725C21.4814 8.00035 22.353 8.36158 22.9957 9.00429C23.6384 9.647 23.9997 10.5186 24 11.4275V20.5711C24 21.4803 23.6389 22.3522 22.9962 22.9952C22.3534 23.6382 21.4816 23.9997 20.5725 24H11.4289C10.5195 24 9.64732 23.6387 9.00429 22.9957C8.36125 22.3527 8 21.4805 8 20.5711V11.4275C8.00035 10.5184 8.36176 9.64657 9.00475 9.00382ZM21.2695 12.1311C21.4547 11.9459 21.5587 11.6947 21.5587 11.4328C21.5587 11.1709 21.4547 10.9197 21.2695 10.7345C21.0843 10.5493 20.8331 10.4452 20.5711 10.4452C20.3092 10.4452 20.058 10.5493 19.8728 10.7345C19.6876 10.9197 19.5836 11.1709 19.5836 11.4328C19.5836 11.6947 19.6876 11.9459 19.8728 12.1311C20.058 12.3163 20.3092 12.4204 20.5711 12.4204C20.8331 12.4204 21.0843 12.3163 21.2695 12.1311ZM14.0653 14.0627C14.5789 13.549 15.2756 13.2605 16.002 13.2605C16.7284 13.2605 17.425 13.549 17.9386 14.0627C18.4523 14.5763 18.7408 15.2729 18.7408 15.9993C18.7408 16.7257 18.4523 17.4224 17.9386 17.936C17.425 18.4497 16.7284 18.7382 16.002 18.7382C15.2756 18.7382 14.5789 18.4497 14.0653 17.936C13.5517 17.4224 13.2631 16.7257 13.2631 15.9993C13.2631 15.2729 13.5517 14.5763 14.0653 14.0627ZM13.1329 13.1316C12.3723 13.8922 11.945 14.9237 11.945 15.9993C11.945 17.075 12.3723 18.1065 13.1329 18.8671C13.8935 19.6277 14.925 20.055 16.0007 20.055C17.0763 20.055 18.1078 19.6277 18.8684 18.8671C19.629 18.1065 20.0563 17.075 20.0563 15.9993C20.0563 14.9237 19.629 13.8922 18.8684 13.1316C18.1078 12.371 17.0763 11.9437 16.0007 11.9437C14.925 11.9437 13.8935 12.371 13.1329 13.1316Z" fill="white"></path></svg> 