<?xml version="1.0" encoding="UTF-8"?> <svg xmlns="http://www.w3.org/2000/svg" width="11" height="20" viewBox="0 0 11 20" fill="none"><path d="M0.596753 18.4431C0.872783 17.9635 1.23131 17.5401 1.5768 17.1048C1.90766 16.6777 2.2309 16.2484 2.56448 15.8262C2.78217 15.5515 2.98958 15.2699 3.21542 15.0099C3.72828 14.4047 4.28836 13.8499 4.87994 13.3287C5.37997 12.884 5.8963 12.4686 6.40447 12.0386C6.8498 11.6563 7.27723 11.2649 7.67804 10.8371C7.79448 10.702 7.90818 10.562 8.01159 10.4149C8.07926 10.3069 8.13989 10.2092 8.19996 10.0991C8.21132 10.0736 8.22485 10.0405 8.23621 10.015C8.24053 9.9998 8.23997 9.98734 8.24701 9.97702C8.23342 9.95264 8.21226 9.92606 8.19379 9.90439C7.96523 9.65466 7.72746 9.42283 7.47722 9.19156C6.85845 8.6543 6.24238 8.12194 5.61657 7.595C5.01409 7.08702 4.43058 6.55568 3.84219 6.02707C3.54255 5.75301 3.25699 5.45832 2.96711 5.17883C2.7136 4.93021 2.46009 4.68161 2.21633 4.42755C1.65337 3.85282 1.09527 3.27536 0.537186 2.69791C0.270154 2.48238 0.119552 2.1317 0.173937 1.78188C0.252521 1.24603 0.763494 0.878342 1.29662 0.952048C1.63126 1.00211 1.86414 1.23666 2.08944 1.46905C2.3017 1.68952 2.51397 1.91001 2.72624 2.13048C3.15349 2.5763 3.58291 3.01452 4.0172 3.45003C4.83151 4.28098 5.70812 5.05167 6.57498 5.82779C6.54621 5.79908 6.51257 5.77306 6.48108 5.73947C6.92779 6.11695 7.37936 6.49171 7.8239 6.87678C8.11267 7.13133 8.40632 7.38316 8.69509 7.63771C8.90569 7.82076 9.10923 8.01414 9.30791 8.21022C9.60594 8.50434 9.88718 8.81422 10.0617 9.19632C10.3519 9.8207 10.2344 10.4932 9.92112 11.0895C9.5407 11.8063 8.96764 12.4066 8.37229 12.9555C7.77206 13.5071 7.13761 14.0203 6.51348 14.5405C5.98691 15.0063 5.47067 15.4792 4.99893 15.9976C4.5115 16.5566 4.06316 17.1515 3.6121 17.7414C3.25092 18.2174 2.874 18.6765 2.51283 19.1525C2.44517 19.2605 2.3748 19.3636 2.30714 19.4716C2.04302 19.9382 1.41251 20.0913 0.955623 19.8218C0.804233 19.7335 0.683715 19.6089 0.599497 19.4577C0.422912 19.1407 0.415984 18.7611 0.596753 18.4431Z" fill="white"></path></svg> 