<?xml version="1.0" encoding="UTF-8"?> <svg xmlns="http://www.w3.org/2000/svg" width="26" height="24" viewBox="0 0 26 24" fill="none"><path d="M23.2008 13.6587L15.234 21.6269C14.7058 22.155 13.9895 22.4516 13.2426 22.4516C12.4958 22.4516 11.7795 22.155 11.2513 21.6269L3.28447 13.6601C2.6259 13.0073 2.10276 12.2308 1.74509 11.3753C1.38741 10.5197 1.20224 9.60196 1.20021 8.67465C1.19818 7.74735 1.37933 6.82878 1.73326 5.97167C2.08718 5.11456 2.60692 4.3358 3.26262 3.6801C3.91832 3.0244 4.69708 2.50466 5.55419 2.15074C6.4113 1.79681 7.32987 1.61566 8.25717 1.61769C9.18448 1.61972 10.1022 1.80489 10.9578 2.16257C11.8133 2.52024 12.5898 3.04339 13.2426 3.70195C14.5687 2.40894 16.3507 1.69041 18.2028 1.70202C20.0548 1.71362 21.8277 2.45443 23.1374 3.76395C24.4471 5.07348 25.1882 6.84628 25.2001 8.69832C25.2119 10.5504 24.4936 12.3325 23.2008 13.6587Z" stroke="#FFFEFA" stroke-width="1.6" stroke-linecap="round" stroke-linejoin="round"></path></svg> 