<?xml version="1.0" encoding="UTF-8"?> <svg xmlns="http://www.w3.org/2000/svg" width="250" height="46" viewBox="0 0 250 46" fill="none"><path fill-rule="evenodd" clip-rule="evenodd" d="M212.251 0.124992C204.921 0.319319 198.109 0.657506 183.748 1.54029C166.908 2.57533 159.82 3.1576 152.478 4.10876C149.805 4.45506 149.104 4.42293 146.39 3.82986C131.929 0.670018 105.919 2.62622 83.3646 8.5699C60.3202 14.6427 38.9798 22.9549 16.1887 34.7355C8.15562 38.8877 0 44.4634 0 45.8029C0 46.1472 0.0907667 46.0973 1.11162 45.1924C9.41418 37.8325 42.898 22.9613 67.5219 15.6974C88.2608 9.57949 101.182 6.985 117.126 5.7373C125.661 5.06931 139.505 5.11551 140.226 5.8145C140.307 5.89396 140.296 5.942 140.194 5.942C139.217 5.942 127.873 8.40215 123.49 9.56442C108.827 13.4534 98.5397 17.9685 90.9045 23.8673C78.5082 33.4443 87.3289 41.8516 107.233 39.4296C121.728 37.6659 136.245 32.8458 148.461 25.7405C159.754 19.1719 162.582 12.0873 155.798 7.35958L154.899 6.73282L155.522 6.62677C157.917 6.21893 169.368 5.31069 182.019 4.52514C205.535 3.06506 214.507 2.75871 231.415 2.8386C240.494 2.88153 241.555 2.8622 243.383 2.62054C244.487 2.47468 246.323 2.31376 247.465 2.26287C249.191 2.18597 249.424 2.15128 248.849 2.05688C248.468 1.99462 246.631 1.63213 244.767 1.25144C240.347 0.349031 239.813 0.275107 236.534 0.113192C233.367 -0.0431798 218.322 -0.0359287 212.251 0.124992ZM249.722 2.34304C249.822 2.38413 249.941 2.37901 249.987 2.33182C250.033 2.28462 249.951 2.25107 249.806 2.25718C249.644 2.264 249.612 2.2977 249.722 2.34304ZM151.232 8.18551C160.507 11.9808 157.671 17.8837 142.931 25.468C133.092 30.5298 123.124 33.9611 112.352 35.9935C92.271 39.7823 81.2713 34.8522 91.08 26.4596C100.693 18.2344 118.893 11.9391 144.453 7.99857C148.539 7.36854 149.286 7.38915 151.232 8.18551Z" fill="#FA4604"></path></svg> 