<?xml version="1.0" encoding="UTF-8"?> <svg xmlns="http://www.w3.org/2000/svg" width="34" height="34" viewBox="0 0 34 34" fill="none"><path fill-rule="evenodd" clip-rule="evenodd" d="M15.1331 12.774C11.977 10.1796 9.41967 7.09005 7.49793 3.49048C7.11358 2.77353 6.21926 2.50004 5.49491 2.88439C4.77796 3.26874 4.50443 4.1631 4.88878 4.88745C7.00269 8.82702 9.79665 12.2122 13.2558 15.0579C13.884 15.5753 14.8227 15.4866 15.3401 14.8583C15.8575 14.2227 15.7614 13.2914 15.1331 12.774Z" fill="#FA4604"></path><path fill-rule="evenodd" clip-rule="evenodd" d="M13.4502 2.67008C13.6128 5.65617 13.7607 8.64225 13.9454 11.6283C13.9972 12.4414 14.6993 13.0622 15.5124 13.0105C16.3254 12.9588 16.9463 12.2566 16.8946 11.4436C16.7098 8.46486 16.5619 5.48618 16.3993 2.50009C16.355 1.68927 15.6528 1.0647 14.8398 1.11052C14.0267 1.15635 13.3984 1.85482 13.4502 2.67008Z" fill="#FA4604"></path><path fill-rule="evenodd" clip-rule="evenodd" d="M24.4233 3.27615C22.5311 6.12919 20.3877 8.76047 18.2295 11.4213C17.7121 12.057 17.8081 12.9883 18.4438 13.4983C19.0794 14.0157 20.0108 13.9196 20.5208 13.284C22.7382 10.5566 24.9408 7.84395 26.8921 4.9096C27.3429 4.2296 27.1507 3.31311 26.4707 2.86224C25.7981 2.41137 24.8742 2.59615 24.4233 3.27615Z" fill="#FA4604"></path><path fill-rule="evenodd" clip-rule="evenodd" d="M31.7529 13.8827C26.6234 14.1118 21.176 14.1192 16.0464 13.794C15.2334 13.7497 14.5312 14.3631 14.4795 15.1836C14.4277 15.9966 15.0486 16.6988 15.8616 16.7505C21.0947 17.0757 26.653 17.0684 31.886 16.8392C32.6991 16.8023 33.3346 16.1075 33.2977 15.2945C33.2607 14.4814 32.566 13.8457 31.7529 13.8827Z" fill="#FA4604"></path><path fill-rule="evenodd" clip-rule="evenodd" d="M13.2519 14.8214C16.4154 18.6944 19.6898 22.4936 22.6241 26.544C23.1045 27.2018 24.0285 27.3496 24.6937 26.8692C25.3515 26.3887 25.4993 25.4648 25.0189 24.807C22.0476 20.7122 18.7363 16.8687 15.5359 12.9513C15.0185 12.3231 14.0871 12.227 13.4589 12.7444C12.8232 13.2618 12.7345 14.1931 13.2519 14.8214Z" fill="#FA4604"></path><path fill-rule="evenodd" clip-rule="evenodd" d="M14.21 15.9451C15.0378 19.9807 15.2669 23.839 15.3261 27.9264C15.3334 28.7394 16.0061 29.3898 16.8191 29.3824C17.6395 29.3677 18.29 28.7024 18.2752 27.882C18.216 23.6024 17.9722 19.5742 17.1074 15.3464C16.9374 14.5481 16.1613 14.0307 15.3556 14.2007C14.5574 14.3633 14.04 15.1468 14.21 15.9451Z" fill="#FA4604"></path><path fill-rule="evenodd" clip-rule="evenodd" d="M14.3433 15.6201C11.9486 20.4096 10.7142 25.7314 8.14943 30.4175C7.75769 31.127 8.02372 32.0287 8.74068 32.4205C9.45764 32.8122 10.352 32.5461 10.7438 31.8365C13.3233 27.1209 14.5724 21.7696 16.9894 16.9431C17.3516 16.2113 17.0559 15.3244 16.3316 14.9548C15.5998 14.5926 14.7129 14.8883 14.3433 15.6201Z" fill="#FA4604"></path><path fill-rule="evenodd" clip-rule="evenodd" d="M15.6613 14.5331C10.8939 15.3757 6.13391 15.76 1.33696 16.3291C0.523915 16.4252 -0.0526072 17.157 0.0434798 17.97C0.139567 18.7831 0.871374 19.3596 1.68442 19.2635C6.53311 18.6944 11.3522 18.2952 16.1788 17.4452C16.977 17.2974 17.5166 16.5287 17.3761 15.7304C17.2283 14.9248 16.467 14.3852 15.6613 14.5331Z" fill="#FA4604"></path><path fill-rule="evenodd" clip-rule="evenodd" d="M18.9786 12.2866C17.9955 12.2422 17.0642 12.1757 16.1034 12.0353C15.2903 11.917 14.5438 12.4787 14.4255 13.2844C14.3073 14.09 14.869 14.844 15.6746 14.9622C16.739 15.1174 17.7664 15.1914 18.8455 15.2357C19.6585 15.2727 20.3533 14.6444 20.3829 13.8239C20.4198 13.0109 19.7916 12.3235 18.9786 12.2866Z" fill="#FA4604"></path></svg> 