<?xml version="1.0" encoding="UTF-8"?> <svg xmlns="http://www.w3.org/2000/svg" width="108" height="108" viewBox="0 0 108 108" fill="none"><g clip-path="url(#clip0_10539_635)"><path fill-rule="evenodd" clip-rule="evenodd" d="M38.5634 31.8864C38.3877 31.9102 38.2236 31.9216 38.0862 31.9143C36.5028 31.8233 34.9672 31.4753 33.401 31.2594C28.968 30.6482 24.7578 28.7033 21.5125 25.6327C21.1998 25.3367 21.1874 24.8425 21.4834 24.5298C21.7794 24.2171 22.2719 24.2039 22.5846 24.4999C25.5952 27.3489 29.5032 29.1489 33.6142 29.7154C35.1403 29.9255 36.6338 30.2669 38.1774 30.3565C38.4079 30.3701 38.7449 30.2742 39.0564 30.2145C39.3968 30.1519 39.7173 30.1172 39.9506 30.1447C40.3362 30.1899 40.5987 30.3696 40.7564 30.6128C40.8683 30.7863 40.9444 31.0109 40.9113 31.31C40.8975 31.432 40.8418 31.6303 40.6769 31.8669C40.4269 32.2282 39.7476 32.9263 38.8578 33.8424C37.3976 35.3415 35.3438 37.4697 33.8377 39.6626C32.8923 41.0366 32.1566 42.4282 31.9826 43.6948C31.9247 44.1219 31.5305 44.4199 31.1033 44.362C30.6779 44.3048 30.3781 43.9098 30.4361 43.4827C30.638 42.0128 31.4525 40.3768 32.5513 38.7786C34.111 36.512 36.2312 34.3047 37.7405 32.7533C38.0306 32.4552 38.3152 32.1549 38.5634 31.8864Z" fill="#D6D6D6"></path><path fill-rule="evenodd" clip-rule="evenodd" d="M37.224 33.3738C29.5977 31.9912 24.4188 34.0224 21.8146 37.7287C17.8955 43.3063 19.8589 52.4324 27.7052 58.7011C47.3401 74.3881 76.9815 67.9102 95.9931 55.3596C96.354 55.1224 96.8364 55.2221 97.0743 55.5811C97.3123 55.9401 97.2119 56.4243 96.8529 56.6622C77.3341 69.5475 46.8905 76.0266 26.7315 59.9209C18.1207 53.0415 16.2368 42.9526 20.5379 36.8316C23.415 32.7393 29.0795 30.3115 37.5015 31.8392C37.9248 31.9168 38.2069 32.3237 38.1301 32.7453C38.0543 33.1694 37.6474 33.4515 37.224 33.3738Z" fill="#D6D6D6"></path></g><defs><clipPath id="clip0_10539_635"><rect width="82.3698" height="82.3698" fill="white" transform="matrix(-0.378897 0.925439 0.925439 0.378897 31.248 0.539062)"></rect></clipPath></defs></svg> 