<?xml version="1.0" encoding="UTF-8"?> <svg xmlns="http://www.w3.org/2000/svg" width="32" height="32" viewBox="0 0 32 32" fill="none"><path fill-rule="evenodd" clip-rule="evenodd" d="M0 5C0 2.23858 2.23858 0 5 0H27C29.7614 0 32 2.23858 32 5V27C32 29.7614 29.7614 32 27 32H5C2.23858 32 0 29.7614 0 27V5ZM9.12 9.12C8 10.2507 8 12.0587 8 15.68V16.32C8 19.936 8 21.744 9.12 22.88C10.2507 24 12.0587 24 15.68 24H16.32C19.936 24 21.744 24 22.88 22.88C24 21.7493 24 19.9413 24 16.32V15.68C24 12.064 24 10.256 22.88 9.12C21.7493 8 19.9413 8 16.32 8H15.68C12.064 8 10.256 8 9.12 9.12Z" fill="white"></path><path d="M16.512 19.5253C12.864 19.5253 10.784 17.0293 10.6987 12.8693H12.5333C12.592 15.92 13.936 17.2107 15.0027 17.4773V12.8693H16.7253V15.4987C17.776 15.3867 18.8853 14.1867 19.2587 12.864H20.976C20.836 13.5487 20.5563 14.1971 20.1543 14.7688C19.7524 15.3405 19.2369 15.8232 18.64 16.1867C19.3061 16.5182 19.8943 16.9872 20.366 17.5627C20.8376 18.1382 21.1818 18.8071 21.376 19.5253H19.4827C19.0773 18.2613 18.064 17.28 16.7253 17.1467V19.5253H16.512Z" fill="white"></path></svg> 