<?xml version="1.0" encoding="UTF-8"?> <svg xmlns="http://www.w3.org/2000/svg" width="69" height="66" viewBox="0 0 69 66" fill="none"><path d="M63.2572 33.9257C63.585 38.3616 62.6574 42.9035 60.4822 46.7796C59.4153 48.6771 57.9485 50.3575 56.3354 51.8097C54.6622 53.3036 52.7865 54.557 50.7916 55.5841C46.6234 57.7366 41.9086 58.6745 37.2435 58.8658C34.9338 58.9645 32.6194 58.8699 30.3313 58.5298C28.0722 58.2001 25.8933 57.5582 23.772 56.7248C21.659 55.8894 19.6388 54.7917 17.7283 53.5688C15.7888 52.3357 13.9837 50.9004 12.3174 49.3151C11.2664 48.3079 10.3044 47.1985 9.45446 46.0077C8.60661 44.8252 7.93515 43.5362 7.36542 42.1948C6.78316 40.8389 6.3836 39.4014 6.16489 37.9445C6.06096 37.2899 6.02764 36.5998 6.11706 35.9404C6.19008 35.3559 6.30664 34.7339 6.61068 34.2235C7.03262 33.5153 7.97998 33.2753 8.68823 33.6972C9.37564 34.1068 9.62172 35.0084 9.25175 35.7123L9.24558 35.7226C9.21876 35.7913 9.20236 35.8663 9.17765 35.9433C9.15515 36.0639 9.13477 36.1929 9.12059 36.3114C9.11084 36.5173 9.10729 36.7128 9.10585 36.9165C9.1382 37.2886 9.18715 37.6565 9.24443 38.0223C9.36066 38.6207 9.52465 39.1982 9.69694 39.7736C9.93405 40.4652 10.2023 41.1401 10.5121 41.8045C10.8595 42.5124 11.2358 43.1953 11.66 43.8572C12.1091 44.5128 12.5851 45.1351 13.1005 45.7385C13.0526 45.6888 13.0129 45.6369 12.967 45.5955C13.6639 46.3917 14.4107 47.14 15.1905 47.8444C16.2309 48.7747 17.3335 49.6362 18.4816 50.4331C19.7609 51.2941 21.0732 52.0759 22.4394 52.791C22.3873 52.76 22.327 52.7311 22.2666 52.7022C23.4932 53.32 24.7403 53.8795 26.035 54.3475C25.9767 54.3268 25.9164 54.298 25.8498 54.2795C26.8884 54.6442 27.9415 54.9611 29.013 55.2114C29.0214 55.2093 29.0318 55.2155 29.0422 55.2217C30.2468 55.4737 31.4783 55.657 32.7095 55.7695C34.2173 55.8917 35.7331 55.9056 37.2465 55.8406C38.9408 55.7563 40.6264 55.568 42.3013 55.2676C43.4982 55.0351 44.6782 54.7362 45.8436 54.3791C46.88 54.0369 47.8892 53.6221 48.8795 53.1678C49.8864 52.674 50.8681 52.1158 51.8102 51.5057C51.7935 51.5099 51.7873 51.5203 51.7728 51.5328C52.582 50.9918 53.3453 50.4093 54.0877 49.7791C54.7098 49.2324 55.3047 48.6484 55.8662 48.0374C55.8455 48.0603 55.8331 48.0812 55.8102 48.0958C56.3054 47.537 56.7673 46.9513 57.1978 46.347C57.5704 45.7928 57.9116 45.22 58.2154 44.6389C58.5626 43.9496 58.8535 43.248 59.1299 42.5236C59.406 41.7285 59.6343 40.9189 59.8251 40.1012C60.0116 39.2315 60.1419 38.3495 60.2264 37.4615C60.2942 36.5423 60.3122 35.6357 60.2823 34.7147C60.2187 33.6608 60.0927 32.6049 59.9169 31.5617C59.919 31.57 59.9211 31.5783 59.9211 31.5783C59.9169 31.5617 59.9106 31.5368 59.9064 31.5202C59.9022 31.5035 59.898 31.4869 59.8959 31.4786C59.898 31.4869 59.9001 31.4952 59.9043 31.5118C59.6844 30.3648 59.3877 29.2285 59.0433 28.113C58.613 26.8336 58.1101 25.5814 57.5262 24.3586C56.8336 22.9511 56.0662 21.5978 55.2034 20.2865C54.4535 19.1765 53.658 18.0957 52.7899 17.0775C52.2202 16.4348 51.6154 15.8275 50.9815 15.2452C50.3102 14.6547 49.6119 14.0976 48.8721 13.5863C48.8826 13.5925 48.893 13.5988 48.9139 13.6112C48.1909 13.1311 47.4347 12.6947 46.66 12.2896C45.6979 11.8082 44.7214 11.3746 43.7139 10.9931C42.4692 10.5479 41.2163 10.1755 39.9305 9.88216C38.911 9.66288 37.8896 9.50598 36.8455 9.39905C35.7079 9.30696 34.5684 9.27727 33.4313 9.32657C32.0176 9.40168 30.6002 9.56623 29.1933 9.80766C29.2016 9.80555 29.2099 9.80345 29.2182 9.80135C29.185 9.80977 29.1601 9.81607 29.1247 9.81618C29.1081 9.82039 29.0915 9.82461 29.0665 9.83092C29.0748 9.82882 29.0832 9.8267 29.0998 9.82249C27.6411 10.1036 26.2096 10.4574 24.793 10.9047C24.8574 10.8795 24.9239 10.8627 24.9883 10.8375C23.8958 11.2027 22.8263 11.624 21.782 12.1096C21.0035 12.4925 20.2542 12.9212 19.5134 13.383C18.8536 13.8154 18.2209 14.2852 17.6175 14.8007C17.1655 15.2158 16.726 15.6455 16.3012 16.098C15.8682 16.588 15.4685 17.1049 15.0814 17.6363C14.7172 18.1884 14.3759 18.7612 14.0659 19.3527C13.7787 19.9295 13.5227 20.525 13.3042 21.1286C13.0467 21.8925 12.8328 22.6541 12.6564 23.424L12.6585 23.4323C12.6544 23.451 12.6483 23.4614 12.6504 23.4697C12.6504 23.4697 12.6483 23.4615 12.6566 23.4594C12.6587 23.4677 12.6525 23.478 12.6525 23.478C12.6443 23.5155 12.6299 23.5634 12.6238 23.6091C12.632 23.5717 12.6402 23.5342 12.6484 23.4968C12.4681 24.3561 12.3419 25.2193 12.2531 26.0908C12.175 27.0391 12.1593 27.9894 12.1976 28.9436C12.2524 29.8583 12.3426 30.7728 12.4931 31.681C12.8503 33.5449 13.3862 35.3812 13.893 37.2072C14.1117 38.0008 13.5842 38.8507 12.7948 39.0507C11.9804 39.257 11.17 38.746 10.9512 37.9524C10.6316 36.7953 10.3202 35.6361 10.0089 34.4769C9.45144 32.4161 9.18489 30.2816 9.1387 28.1444C9.09007 25.8927 9.44265 23.6191 10.0326 21.4445C10.5999 19.3552 11.5627 17.3957 12.8004 15.6141C15.4209 11.8551 19.58 9.42189 23.865 8.0092C28.2081 6.58176 32.8739 5.9746 37.4204 6.39701C39.6936 6.60821 41.9305 7.16465 44.0868 7.89185C46.2056 8.61086 48.2525 9.5692 50.1483 10.7692C53.9503 13.1754 56.806 16.803 59.0303 20.6612C60.5522 23.2825 61.7462 26.1106 62.4914 29.0524C62.8665 30.6376 63.1377 32.2669 63.2572 33.9257Z" fill="#FA4604"></path><path d="M29.0748 9.7935L29.0831 9.7914C29.0852 9.79971 29.0769 9.80181 29.0748 9.7935Z" fill="#FA4604"></path><path d="M12.6253 23.4407C12.6232 23.4324 12.6294 23.422 12.6335 23.4033C12.6294 23.422 12.6315 23.4303 12.6253 23.4407Z" fill="#FA4604"></path><path d="M42.7946 44.6153C42.2232 43.9864 41.5465 43.469 40.8854 42.9295C40.2489 42.3973 39.6232 41.8595 38.9843 41.3355C38.5676 40.995 38.164 40.6406 37.74 40.3247C36.7721 39.5852 35.7499 38.9368 34.6914 38.3491C33.7955 37.8461 32.8847 37.3925 31.9813 36.9142C31.1878 36.4869 30.4182 36.04 29.6766 35.5299C29.4576 35.3653 29.2411 35.1926 29.0377 35.006C28.9008 34.8662 28.7778 34.7395 28.6515 34.594C28.6261 34.5595 28.595 34.5143 28.5696 34.4798C28.5581 34.4584 28.5549 34.4396 28.5409 34.4264C28.5533 34.3854 28.5763 34.3386 28.5969 34.3C28.8578 33.8504 29.1384 33.4246 29.4379 32.9956C30.1897 31.9866 30.9392 30.9859 31.705 29.9901C32.442 29.0304 33.1429 28.042 33.8521 27.0559C34.2116 26.5465 34.5433 26.0108 34.8864 25.4964C35.185 25.0403 35.4837 24.5842 35.766 24.1231C36.4219 23.0763 37.0695 22.0269 37.7172 20.9776C38.047 20.5667 38.1578 19.9912 37.9615 19.4843C37.6678 18.7063 36.7806 18.3225 36.0051 18.608C35.5196 18.7929 35.2472 19.2211 34.9855 19.6436C34.7395 20.044 34.4934 20.4444 34.2473 20.8448C33.7528 21.6537 33.2524 22.452 32.7439 23.2478C31.7951 24.7614 30.733 26.2051 29.6874 27.6538C29.7212 27.6013 29.7631 27.5512 29.7993 27.4905C29.2531 28.2033 28.6987 28.9136 28.1582 29.6371C27.8086 30.1137 27.4508 30.5878 27.1011 31.0644C26.8453 31.4081 26.6035 31.765 26.3698 32.1243C26.0192 32.6633 25.699 33.2204 25.5627 33.8508C25.3322 34.8826 25.7291 35.8529 26.3948 36.6445C27.2006 37.5948 28.2572 38.3074 29.3304 38.9354C30.4118 39.5658 31.5318 40.1273 32.6387 40.7028C33.5815 41.2288 34.511 41.7687 35.3888 42.3915C36.3034 43.0702 37.1711 43.8153 38.0413 44.5522C38.7392 45.1477 39.4553 45.7127 40.1533 46.3082C40.2902 46.448 40.4296 46.5795 40.5665 46.7193C41.1158 47.3326 42.1118 47.3553 42.7087 46.8011C42.9069 46.6191 43.0468 46.3926 43.1235 46.1382C43.2843 45.6047 43.1701 45.033 42.7946 44.6153Z" fill="#FA4604"></path></svg> 