<?xml version="1.0" encoding="UTF-8"?> <svg xmlns="http://www.w3.org/2000/svg" width="325" height="62" viewBox="0 0 325 62" fill="none"><path fill-rule="evenodd" clip-rule="evenodd" d="M257.878 0.0970649C222.509 1.06968 197.449 3.38983 162.589 8.9186C133.916 13.4663 114.912 17.1615 82.4661 24.4987C63.3868 28.8131 55.9142 30.8082 40.7373 35.639C28.7842 39.4438 21.3145 41.6723 14.24 43.544C3.71124 46.3298 0 47.6222 0 48.5029C0 48.8909 0.350774 48.9853 0.652338 48.6786C0.913886 48.4125 2.346 48.0109 11.1417 45.7369C18.505 43.8331 23.9415 42.3022 34.8791 39.052C59.4169 31.7608 61.6891 31.208 99.7409 23.2772C153.693 12.0321 197.506 6.06236 239.557 4.22696C279.489 2.48395 312.371 3.19677 320.807 5.98793C322.2 6.44902 322.207 6.40942 320.619 7.15525C316.925 8.89128 308.645 10.8944 292.281 14.0103C273.595 17.5685 263.457 19.2201 233.069 23.6567C209.929 27.0351 209.372 27.1271 178.812 32.6408C146.8 38.4164 132.704 41.1894 113.56 45.4767C106.799 46.9906 106.23 47.1043 97.9097 48.6005C81.353 51.5779 67.1351 54.817 53.1748 58.7916C48.6297 60.0856 47.81 60.6688 48.9982 61.7624C49.9548 62.643 57.8942 61.1304 77.5992 56.3139C101.919 50.3693 105.343 49.6464 119.328 47.5025C139.378 44.4288 156.091 42.4361 170.069 41.4526C184.076 40.4672 207.497 39.2122 220.18 38.7676C227.264 38.5192 254.7 38.324 256.068 38.5123L257.132 38.6586L256.141 38.9022C254.414 39.3268 223.812 45.3651 210.356 47.9362C206.143 48.7413 200.059 49.8624 196.837 50.4275C186.333 52.2696 163.799 56.5854 159.825 57.5159C157.343 58.0973 156.473 59.2791 157.648 60.4737C158.448 61.2874 163.817 61.3578 175.477 60.7076C178.253 60.5529 183.363 60.2979 186.833 60.1411C190.303 59.9844 195.489 59.6521 198.358 59.4028C201.226 59.1535 205.525 58.8609 207.911 58.7527C210.297 58.6445 213.303 58.4914 214.592 58.4126L216.935 58.2692L214.862 58.2406C212.149 58.203 205.764 57.9082 200.352 57.5707C194.005 57.1749 180.105 57.2642 173.675 57.7421C172.948 57.796 172.693 57.7663 172.895 57.6514C173.289 57.4272 189.669 54.3102 197.378 52.9925C220.675 49.0106 260.503 41.0924 262.499 40.0461C264.27 39.1178 264.137 37.4936 262.223 36.6803C258.794 35.223 227.159 35.4941 198.82 37.2239C196.391 37.3721 190.713 37.7026 186.202 37.9584C169.238 38.9202 152.566 40.3066 146.276 41.279C145.879 41.3403 145.601 41.3404 145.658 41.2796C145.887 41.0339 189.784 33.1179 206.812 30.2516C210.662 29.6033 221.815 27.9136 231.597 26.4964C265.593 21.571 273.443 20.2999 293.994 16.3919C319.37 11.5662 326.265 9.15217 324.818 5.59906C323.613 2.6407 316.71 1.29298 297.509 0.267748C292.916 0.0224403 264.967 -0.0980078 257.878 0.0970649Z" fill="#FA4604"></path></svg> 