<?xml version="1.0" encoding="UTF-8"?> <svg xmlns="http://www.w3.org/2000/svg" width="78" height="85" viewBox="0 0 78 85" fill="none"><path fill-rule="evenodd" clip-rule="evenodd" d="M22.9668 72.6859C16.8935 69.9337 10.3881 68.0266 4.07004 66.2255C2.70852 65.8423 1.27373 66.6191 0.968418 67.9722C0.563828 69.3113 1.36696 70.7128 2.62936 71.081C8.75382 72.8212 15.0675 74.6473 20.8535 77.2876C22.0856 77.8569 23.5903 77.2941 24.187 76.0259C24.7835 74.7587 24.1988 73.2561 22.9668 72.6859Z" fill="#FA4604"></path><path fill-rule="evenodd" clip-rule="evenodd" d="M46.034 50.1212C37.4084 38.0714 27.2902 27.1803 18.9053 14.8784C18.1651 13.7359 16.5872 13.4429 15.4541 14.2345C14.3209 15.0271 13.9834 16.5962 14.8227 17.7536C23.203 30.0865 33.3166 41.0076 41.9376 53.0884C42.7805 54.2218 44.364 54.4748 45.5012 53.6562C46.5391 52.8237 46.8769 51.2546 46.034 50.1212Z" fill="#FA4604"></path><path fill-rule="evenodd" clip-rule="evenodd" d="M71.2599 12.5761C70.6505 18.6369 70.0406 24.6976 69.431 30.7594C69.2233 32.1374 70.253 33.3808 71.6509 33.523C73.0489 33.6641 74.2164 32.6405 74.4242 31.2615C75.0351 25.1907 75.6464 19.121 76.2571 13.0512C76.3657 11.6582 75.3353 10.4219 73.9363 10.2878C72.6363 10.1685 71.3683 11.1842 71.2599 12.5761Z" fill="#FA4604"></path></svg> 