<?xml version="1.0" encoding="UTF-8"?> <svg xmlns="http://www.w3.org/2000/svg" width="148" height="34" viewBox="0 0 148 34" fill="none"><path d="M3.61603 7.12661C3.01125 7.12661 2.49789 6.993 2.07594 6.72577C1.654 6.45854 1.33192 6.08723 1.1097 5.61184C0.890291 5.13646 0.780586 4.58653 0.780586 3.96205C0.780586 3.33758 0.890291 2.78765 1.1097 2.31226C1.33192 1.83688 1.654 1.46557 2.07594 1.19834C2.49789 0.931111 3.01125 0.797496 3.61603 0.797496C4.31926 0.797496 4.89732 0.976118 5.35021 1.33336C5.8059 1.6906 6.11955 2.17162 6.29113 2.7764L5.52742 2.97893C5.40365 2.52605 5.18284 2.1688 4.86497 1.9072C4.54711 1.6456 4.1308 1.5148 3.61603 1.5148C3.16315 1.5148 2.78621 1.61747 2.48523 1.82281C2.18424 2.02816 1.9578 2.31508 1.8059 2.68357C1.654 3.04925 1.57665 3.47541 1.57384 3.96205C1.57102 4.44588 1.64557 4.87204 1.79746 5.24053C1.94936 5.60622 2.17721 5.89314 2.48101 6.10129C2.78481 6.30664 3.16315 6.40931 3.61603 6.40931C4.1308 6.40931 4.54711 6.27851 4.86497 6.01691C5.18284 5.75249 5.40365 5.39525 5.52742 4.94518L6.29113 5.14771C6.11955 5.74968 5.8059 6.23069 5.35021 6.59074C4.89732 6.94799 4.31926 7.12661 3.61603 7.12661Z" fill="white" fill-opacity="0.3"></path><path d="M7.21228 7.00003V2.44307H9.15321C9.26854 2.44307 9.39231 2.4501 9.52452 2.46416C9.65954 2.47541 9.7819 2.49651 9.89161 2.52745C10.1363 2.59215 10.3375 2.72577 10.495 2.9283C10.6553 3.12802 10.7355 3.38118 10.7355 3.68779C10.7355 3.85938 10.7088 4.00847 10.6553 4.13505C10.6047 4.26163 10.5316 4.37134 10.4359 4.46416C10.3937 4.50636 10.3473 4.54433 10.2967 4.57809C10.246 4.61184 10.1954 4.63857 10.1448 4.65826C10.2432 4.67513 10.3431 4.71311 10.4444 4.77218C10.6047 4.85938 10.7299 4.98174 10.8199 5.13927C10.9127 5.29679 10.9591 5.49792 10.9591 5.74264C10.9591 6.05207 10.8846 6.30804 10.7355 6.51058C10.5864 6.71029 10.3811 6.84813 10.1195 6.92408C10.0098 6.95502 9.8888 6.97612 9.75659 6.98737C9.62438 6.99581 9.49639 7.00003 9.37262 7.00003H7.21228ZM7.97178 6.38821H9.33043C9.3895 6.38821 9.45982 6.38259 9.5414 6.37134C9.62579 6.36008 9.70033 6.34602 9.76503 6.32914C9.9113 6.28695 10.0168 6.20819 10.0815 6.09285C10.149 5.97752 10.1827 5.85235 10.1827 5.71733C10.1827 5.5373 10.1321 5.39103 10.0308 5.27851C9.9324 5.16599 9.80159 5.09567 9.63844 5.06754C9.57937 5.05066 9.51467 5.04082 9.44435 5.038C9.37684 5.03519 9.31636 5.03378 9.26292 5.03378H7.97178V6.38821ZM7.97178 4.41353H9.10258C9.18134 4.41353 9.26432 4.40931 9.35152 4.40087C9.43873 4.38962 9.51467 4.37134 9.57937 4.34602C9.70877 4.2982 9.803 4.21944 9.86207 4.10973C9.92396 3.99721 9.9549 3.87485 9.9549 3.74264C9.9549 3.59637 9.92114 3.46838 9.85363 3.35868C9.78894 3.24616 9.68908 3.1688 9.55406 3.12661C9.46404 3.09285 9.36278 3.07457 9.25026 3.07176C9.14055 3.06613 9.07023 3.06332 9.03929 3.06332H7.97178V4.41353Z" fill="white" fill-opacity="0.3"></path><path d="M13.1021 7.12661C12.7618 7.12661 12.4762 7.06473 12.2456 6.94096C12.0177 6.81437 11.8447 6.64841 11.7266 6.44307C11.6113 6.23772 11.5536 6.01269 11.5536 5.76796C11.5536 5.52886 11.5986 5.32211 11.6886 5.14771C11.7814 4.97049 11.9108 4.82422 12.0768 4.70889C12.2428 4.59075 12.4411 4.49792 12.6717 4.43041C12.8883 4.37134 13.1302 4.3207 13.3975 4.27851C13.6675 4.2335 13.9404 4.19271 14.216 4.15615C14.4917 4.11958 14.7491 4.08442 14.9882 4.05066L14.7182 4.20678C14.7266 3.80172 14.645 3.50214 14.4734 3.30804C14.3046 3.11395 14.0121 3.01691 13.5958 3.01691C13.3201 3.01691 13.0782 3.0802 12.87 3.20678C12.6647 3.33055 12.5198 3.53308 12.4355 3.81437L11.7224 3.59918C11.8321 3.19975 12.0445 2.8861 12.3595 2.65826C12.6746 2.43041 13.0895 2.31648 13.6042 2.31648C14.0177 2.31648 14.3722 2.39103 14.6675 2.54011C14.9657 2.68639 15.1795 2.90861 15.3089 3.20678C15.3736 3.34743 15.4144 3.50073 15.4312 3.66669C15.4481 3.82985 15.4565 4.00143 15.4565 4.18146V7.00003H14.7899V5.9072L14.946 6.00847C14.7744 6.37696 14.5339 6.65544 14.2245 6.84391C13.9179 7.03238 13.5437 7.12661 13.1021 7.12661ZM13.216 6.49792C13.4861 6.49792 13.7196 6.4501 13.9165 6.35446C14.1162 6.25601 14.2765 6.12802 14.3975 5.97049C14.5184 5.81015 14.5972 5.63575 14.6338 5.44729C14.676 5.30664 14.6985 5.15052 14.7013 4.97893C14.7069 4.80453 14.7097 4.67091 14.7097 4.57809L14.9713 4.69201C14.7266 4.72577 14.4861 4.75811 14.2498 4.78906C14.0135 4.82 13.7899 4.85375 13.5789 4.89032C13.3679 4.92408 13.1781 4.96487 13.0093 5.01269C12.8855 5.05207 12.7688 5.1027 12.6591 5.16458C12.5522 5.22647 12.465 5.30664 12.3975 5.40509C12.3328 5.50073 12.3004 5.62028 12.3004 5.76374C12.3004 5.88751 12.3314 6.00565 12.3933 6.11817C12.458 6.23069 12.5564 6.32211 12.6886 6.39243C12.8236 6.46276 12.9994 6.49792 13.216 6.49792Z" fill="white" fill-opacity="0.3"></path><path d="M16.216 8.01269V6.37977C16.472 6.37977 16.6549 6.29679 16.7646 6.13083C16.8743 5.96205 16.9629 5.68498 17.0304 5.29961C17.0754 5.05769 17.112 4.7989 17.1401 4.52323C17.1682 4.24757 17.1921 3.94096 17.2118 3.6034C17.2343 3.26304 17.2554 2.87626 17.2751 2.44307H20.4144V6.37977H20.8574V8.01269H20.1401V7.00003H16.9333V8.01269H16.216ZM17.3722 6.37977H19.6633V3.06332H17.9544C17.946 3.26304 17.9347 3.4726 17.9207 3.69201C17.9066 3.90861 17.8897 4.1252 17.8701 4.3418C17.8532 4.5584 17.8321 4.76374 17.8068 4.95783C17.7843 5.14911 17.7575 5.3207 17.7266 5.4726C17.69 5.68357 17.6478 5.86219 17.6 6.00847C17.5522 6.15474 17.4762 6.27851 17.3722 6.37977Z" fill="white" fill-opacity="0.3"></path><path d="M23.6789 7.12661C23.2317 7.12661 22.8407 7.02816 22.5059 6.83125C22.174 6.63153 21.9152 6.35446 21.7296 6.00003C21.5439 5.64278 21.4511 5.22647 21.4511 4.75108C21.4511 4.25319 21.5425 3.82281 21.7253 3.45994C21.9082 3.09426 22.1627 2.81297 22.489 2.61606C22.8182 2.41634 23.2035 2.31648 23.6452 2.31648C24.1037 2.31648 24.4933 2.42197 24.8139 2.63294C25.1374 2.84391 25.3793 3.14489 25.5397 3.53589C25.7028 3.92689 25.7732 4.39243 25.7507 4.93252H24.9912V4.66248C24.9827 4.1027 24.8688 3.68498 24.6494 3.40931C24.43 3.13083 24.1037 2.99159 23.6705 2.99159C23.2063 2.99159 22.8533 3.14067 22.6114 3.43885C22.3695 3.73702 22.2485 4.16458 22.2485 4.72155C22.2485 5.25882 22.3695 5.67513 22.6114 5.97049C22.8533 6.26585 23.1979 6.41353 23.6452 6.41353C23.9462 6.41353 24.2078 6.34461 24.43 6.20678C24.6522 6.06894 24.8266 5.87063 24.9532 5.61184L25.6747 5.86079C25.4975 6.26304 25.2303 6.57527 24.873 6.7975C24.5186 7.01691 24.1206 7.12661 23.6789 7.12661ZM21.9954 4.93252V4.32914H25.3625V4.93252H21.9954Z" fill="white" fill-opacity="0.3"></path><path d="M28.5424 7.13083C28.112 7.12802 27.7449 7.03519 27.4411 6.85235C27.1373 6.66669 26.901 6.39525 26.7323 6.038C26.5635 5.68076 26.4692 5.24335 26.4496 4.72577C26.4383 4.48667 26.4411 4.22366 26.458 3.93674C26.4777 3.64982 26.5086 3.37415 26.5508 3.10973C26.5958 2.84532 26.6521 2.62731 26.7196 2.45572C26.7956 2.25038 26.9024 2.06051 27.0403 1.8861C27.1809 1.70889 27.3384 1.56262 27.5128 1.44729C27.6901 1.32633 27.8884 1.2321 28.1078 1.16459C28.3272 1.09707 28.5564 1.04503 28.7955 1.00847C29.0375 0.969086 29.2794 0.93533 29.5213 0.907201C29.7632 0.876259 29.9939 0.83969 30.2133 0.797496L30.2892 1.4726C30.1345 1.50636 29.9517 1.53589 29.7407 1.56121C29.5297 1.58371 29.3103 1.61044 29.0825 1.64138C28.8574 1.67232 28.6408 1.71592 28.4327 1.77218C28.2273 1.82563 28.0501 1.90017 27.901 1.99581C27.6816 2.12802 27.5129 2.32633 27.3947 2.59075C27.2794 2.85235 27.2091 3.1463 27.1837 3.4726C27.3581 3.20256 27.5846 3.00425 27.8631 2.87767C28.1415 2.75108 28.4383 2.68779 28.7534 2.68779C29.1612 2.68779 29.5128 2.78343 29.8082 2.97471C30.1036 3.16318 30.33 3.42338 30.4875 3.7553C30.6479 4.08723 30.728 4.46557 30.728 4.89032C30.728 5.34039 30.638 5.73421 30.458 6.07176C30.278 6.40931 30.0234 6.67091 29.6943 6.85657C29.368 7.04222 28.984 7.13364 28.5424 7.13083ZM28.5888 6.41775C29.0304 6.41775 29.3652 6.28132 29.593 6.00847C29.8209 5.7328 29.9348 5.36712 29.9348 4.91142C29.9348 4.44447 29.8166 4.07738 29.5804 3.81015C29.3441 3.54011 29.0121 3.40509 28.5846 3.40509C28.1514 3.40509 27.8195 3.54011 27.5888 3.81015C27.361 4.07738 27.247 4.44447 27.247 4.91142C27.247 5.38118 27.3624 5.74968 27.593 6.01691C27.8237 6.28413 28.1556 6.41775 28.5888 6.41775Z" fill="white" fill-opacity="0.3"></path><path d="M31.6552 7.00003V2.44307H32.4062V4.3629H34.8029V2.44307H35.5539V7.00003H34.8029V5.07598H32.4062V7.00003H31.6552Z" fill="white" fill-opacity="0.3"></path><path d="M36.7359 7.00003L36.7317 2.44307H37.4869V4.09285H38.1831C38.3153 4.09285 38.4504 4.09567 38.5882 4.10129C38.726 4.10692 38.8456 4.11958 38.9469 4.13927C39.1831 4.18709 39.3899 4.26726 39.5671 4.37977C39.7443 4.49229 39.8822 4.64419 39.9806 4.83547C40.0791 5.02675 40.1283 5.26444 40.1283 5.54855C40.1283 5.94236 40.0256 6.2546 39.8203 6.48526C39.6177 6.71311 39.3519 6.86501 39.0228 6.94096C38.9103 6.96627 38.7809 6.98315 38.6346 6.99159C38.4912 6.99721 38.3547 7.00003 38.2253 7.00003H36.7359ZM37.4869 6.37977H38.238C38.3224 6.37977 38.4166 6.37696 38.5207 6.37134C38.6248 6.36571 38.7176 6.35165 38.7992 6.32914C38.9426 6.28695 39.0706 6.20397 39.1831 6.0802C39.2985 5.95643 39.3561 5.77921 39.3561 5.54855C39.3561 5.31508 39.2999 5.13505 39.1874 5.00847C39.0777 4.88188 38.9328 4.7989 38.7528 4.75952C38.6712 4.73983 38.5854 4.72717 38.4954 4.72155C38.4054 4.71592 38.3196 4.71311 38.238 4.71311H37.4869V6.37977ZM40.6515 7.00003V2.44307H41.4025V7.00003H40.6515Z" fill="white" fill-opacity="0.3"></path><path d="M44.549 1.91142C44.3381 1.91142 44.1454 1.85938 43.971 1.7553C43.7966 1.65122 43.6573 1.51339 43.5533 1.3418C43.4492 1.1674 43.3971 0.973305 43.3971 0.759521H44.0047C44.0047 0.908607 44.0582 1.0366 44.1651 1.14349C44.272 1.25038 44.4 1.30383 44.549 1.30383C44.7009 1.30383 44.8289 1.25038 44.933 1.14349C45.0399 1.0366 45.0933 0.908607 45.0933 0.759521H45.7009C45.7009 0.973305 45.6489 1.1674 45.5448 1.3418C45.4436 1.51339 45.3043 1.65122 45.1271 1.7553C44.9527 1.85938 44.76 1.91142 44.549 1.91142ZM46.317 2.44307V7.00003H45.5912V3.64138L43.2031 7.00003H42.5828V2.44307H43.3085V5.7553L45.7009 2.44307H46.317Z" fill="white" fill-opacity="0.3"></path><path d="M49.1839 7.00003V2.44307H51.1248C51.2401 2.44307 51.3639 2.4501 51.4961 2.46416C51.6311 2.47541 51.7535 2.49651 51.8632 2.52745C52.1079 2.59215 52.309 2.72577 52.4666 2.9283C52.6269 3.12802 52.7071 3.38118 52.7071 3.68779C52.7071 3.85938 52.6803 4.00847 52.6269 4.13505C52.5763 4.26163 52.5031 4.37134 52.4075 4.46416C52.3653 4.50636 52.3189 4.54433 52.2683 4.57809C52.2176 4.61184 52.167 4.63857 52.1164 4.65826C52.2148 4.67513 52.3147 4.71311 52.4159 4.77218C52.5763 4.85938 52.7014 4.98174 52.7915 5.13927C52.8843 5.29679 52.9307 5.49792 52.9307 5.74264C52.9307 6.05207 52.8562 6.30804 52.7071 6.51058C52.558 6.71029 52.3526 6.84813 52.091 6.92408C51.9813 6.95502 51.8604 6.97612 51.7282 6.98737C51.596 6.99581 51.468 7.00003 51.3442 7.00003H49.1839ZM49.9434 6.38821H51.302C51.3611 6.38821 51.4314 6.38259 51.513 6.37134C51.5974 6.36008 51.6719 6.34602 51.7366 6.32914C51.8829 6.28695 51.9884 6.20819 52.0531 6.09285C52.1206 5.97752 52.1543 5.85235 52.1543 5.71733C52.1543 5.5373 52.1037 5.39103 52.0024 5.27851C51.904 5.16599 51.7732 5.09567 51.61 5.06754C51.551 5.05066 51.4863 5.04082 51.4159 5.038C51.3484 5.03519 51.2879 5.03378 51.2345 5.03378H49.9434V6.38821ZM49.9434 4.41353H51.0742C51.1529 4.41353 51.2359 4.40931 51.3231 4.40087C51.4103 4.38962 51.4863 4.37134 51.551 4.34602C51.6803 4.2982 51.7746 4.21944 51.8337 4.10973C51.8955 3.99721 51.9265 3.87485 51.9265 3.74264C51.9265 3.59637 51.8927 3.46838 51.8252 3.35868C51.7605 3.24616 51.6607 3.1688 51.5256 3.12661C51.4356 3.09285 51.3344 3.07457 51.2218 3.07176C51.1121 3.06613 51.0418 3.06332 51.0109 3.06332H49.9434V4.41353Z" fill="white" fill-opacity="0.3"></path><path d="M55.753 7.12661C55.3058 7.12661 54.9148 7.02816 54.58 6.83125C54.2481 6.63153 53.9893 6.35446 53.8037 6.00003C53.618 5.64278 53.5252 5.22647 53.5252 4.75108C53.5252 4.25319 53.6166 3.82281 53.7994 3.45994C53.9823 3.09426 54.2369 2.81297 54.5632 2.61606C54.8923 2.41634 55.2776 2.31648 55.7193 2.31648C56.1778 2.31648 56.5674 2.42197 56.888 2.63294C57.2115 2.84391 57.4534 3.14489 57.6138 3.53589C57.7769 3.92689 57.8473 4.39243 57.8248 4.93252H57.0653V4.66248C57.0568 4.1027 56.9429 3.68498 56.7235 3.40931C56.5041 3.13083 56.1778 2.99159 55.7446 2.99159C55.2805 2.99159 54.9274 3.14067 54.6855 3.43885C54.4436 3.73702 54.3226 4.16458 54.3226 4.72155C54.3226 5.25882 54.4436 5.67513 54.6855 5.97049C54.9274 6.26585 55.272 6.41353 55.7193 6.41353C56.0203 6.41353 56.2819 6.34461 56.5041 6.20678C56.7263 6.06894 56.9007 5.87063 57.0273 5.61184L57.7488 5.86079C57.5716 6.26304 57.3044 6.57527 56.9471 6.7975C56.5927 7.01691 56.1947 7.12661 55.753 7.12661ZM54.0695 4.93252V4.32914H57.4366V4.93252H54.0695Z" fill="white" fill-opacity="0.3"></path><path d="M58.4266 8.01269V6.37977C58.6826 6.37977 58.8654 6.29679 58.9751 6.13083C59.0848 5.96205 59.1734 5.68498 59.241 5.29961C59.286 5.05769 59.3225 4.7989 59.3507 4.52323C59.3788 4.24757 59.4027 3.94096 59.4224 3.6034C59.4449 3.26304 59.466 2.87626 59.4857 2.44307H62.6249V6.37977H63.068V8.01269H62.3507V7.00003H59.1439V8.01269H58.4266ZM59.5827 6.37977H61.8739V3.06332H60.165C60.1566 3.26304 60.1453 3.4726 60.1313 3.69201C60.1172 3.90861 60.1003 4.1252 60.0806 4.3418C60.0637 4.5584 60.0426 4.76374 60.0173 4.95783C59.9948 5.14911 59.9681 5.3207 59.9372 5.4726C59.9006 5.68357 59.8584 5.86219 59.8106 6.00847C59.7628 6.15474 59.6868 6.27851 59.5827 6.37977Z" fill="white" fill-opacity="0.3"></path><path d="M64.5477 9.02534L65.4296 6.62872L65.4422 7.33758L63.4507 2.44307H64.2397L65.8009 6.37977H65.5308L66.995 2.44307H67.7587L65.2777 9.02534H64.5477Z" fill="white" fill-opacity="0.3"></path><path d="M73.5527 7.84391V7.00003H68.4514V2.44307H69.1771V6.31648H70.7468V2.44307H71.4725V6.31648H73.0379V2.44307H73.7636V6.31648H74.3037V7.84391H73.5527Z" fill="white" fill-opacity="0.3"></path><path d="M78.7125 2.44307V7.00003H77.9867V3.64138L75.5985 7.00003H74.9783V2.44307H75.704V5.7553L78.0964 2.44307H78.7125Z" fill="white" fill-opacity="0.3"></path><path d="M81.8562 1.91142C81.6452 1.91142 81.4525 1.85938 81.2781 1.7553C81.1037 1.65122 80.9645 1.51339 80.8604 1.3418C80.7563 1.1674 80.7043 0.973305 80.7043 0.759521H81.3119C81.3119 0.908607 81.3653 1.0366 81.4722 1.14349C81.5791 1.25038 81.7071 1.30383 81.8562 1.30383C82.0081 1.30383 82.1361 1.25038 82.2402 1.14349C82.3471 1.0366 82.4005 0.908607 82.4005 0.759521H83.0081C83.0081 0.973305 82.9561 1.1674 82.852 1.3418C82.7507 1.51339 82.6115 1.65122 82.4343 1.7553C82.2599 1.85938 82.0672 1.91142 81.8562 1.91142ZM83.6241 2.44307V7.00003H82.8984V3.64138L80.5102 7.00003H79.89V2.44307H80.6157V5.7553L83.0081 2.44307H83.6241Z" fill="white" fill-opacity="0.3"></path><path d="M4.4117 33V13.2152H0.644775V10.4663H11.2668V13.2152H7.43203V33H4.4117Z" fill="#FFFEFA"></path><path d="M21.2987 33V16.7446H21.163L15.9368 33H12.7807V10.4663H15.7332V25.6698H15.8689L20.9593 10.4663H24.2172V33H21.2987Z" fill="#FFFEFA"></path><path d="M39.2714 33V20.5454C39.2714 19.1653 39.3053 17.5364 39.3732 15.6586H39.2375L35.4366 33H32.6199L28.819 15.6586H28.6833C28.7512 17.5364 28.7851 19.1653 28.7851 20.5454V33H26.0702V10.4663H30.6855L34.0113 26.9933H34.147L37.4728 10.4663H41.9863V33H39.2714Z" fill="#FFFEFA"></path><path d="M51.4694 22.4119H51.3336C51.0169 23.0454 50.5418 23.5431 49.9083 23.9051C49.2748 24.2671 48.5395 24.4481 47.7024 24.4481C45.1233 24.4481 43.8337 22.5703 43.8337 18.8147V10.4663H46.8201V18.9844C46.8201 19.8441 46.9785 20.5115 47.2952 20.9866C47.6119 21.4391 48.1436 21.6653 48.8902 21.6653C49.6142 21.6653 50.1798 21.4617 50.587 21.0545C50.9943 20.6472 51.2884 20.0703 51.4694 19.3237V10.4663H54.4558V27.5024C54.4558 29.3349 54.0146 30.7489 53.1322 31.7444C52.2499 32.7172 50.9264 33.2036 49.1617 33.2036C47.4649 33.2036 46.1527 32.7512 45.2251 31.8462C44.2975 30.9186 43.8337 29.4933 43.8337 27.5702V25.5001H46.8201V27.7399C46.8201 29.5046 47.5893 30.3869 49.1278 30.3869C50.6888 30.3869 51.4694 29.4933 51.4694 27.706V22.4119Z" fill="#FFFEFA"></path><path d="M59.3821 24.0409V33H56.3278V10.4663H62.606C64.1671 10.4663 65.2644 10.8623 65.8979 11.6541C66.554 12.446 66.882 13.5545 66.882 14.9799V19.5273C66.882 20.9527 66.554 22.0612 65.8979 22.8531C65.2644 23.6449 64.1671 24.0409 62.606 24.0409H59.3821ZM59.3821 21.3938H61.9952C62.7192 21.3938 63.2282 21.1902 63.5223 20.783C63.839 20.3757 63.9974 19.7988 63.9974 19.0522V15.3192C63.9974 14.6405 63.839 14.1202 63.5223 13.7582C63.2282 13.3962 62.7192 13.2152 61.9952 13.2152H59.3821V21.3938Z" fill="#FFFEFA"></path><path d="M72.5006 33V10.4663H81.1204V13.2491H75.5548V33H72.5006Z" fill="#FFFEFA"></path><path d="M85.6959 24.0409V33H82.6417V10.4663H88.9199C90.481 10.4663 91.5782 10.8623 92.2117 11.6541C92.8678 12.446 93.1959 13.5545 93.1959 14.9799V19.5273C93.1959 20.9527 92.8678 22.0612 92.2117 22.8531C91.5782 23.6449 90.481 24.0409 88.9199 24.0409H85.6959ZM85.6959 21.3938H88.309C89.033 21.3938 89.5421 21.1902 89.8362 20.783C90.1529 20.3757 90.3113 19.7988 90.3113 19.0522V15.3192C90.3113 14.6405 90.1529 14.1202 89.8362 13.7582C89.5421 13.3962 89.033 13.2152 88.309 13.2152H85.6959V21.3938Z" fill="#FFFEFA"></path><path d="M105.359 27.5702C105.359 29.4707 104.895 30.8847 103.967 31.8123C103.062 32.7398 101.761 33.2036 100.065 33.2036C98.2998 33.2036 96.9537 32.7172 96.0261 31.7444C95.1211 30.7489 94.6686 29.3349 94.6686 27.5024V16.0658C94.6686 14.2333 95.1324 12.8079 96.06 11.7899C97.0102 10.7718 98.3338 10.2627 100.031 10.2627C101.727 10.2627 103.04 10.7831 103.967 11.8238C104.895 12.8645 105.359 14.3011 105.359 16.1337V27.5702ZM102.372 15.8622C102.372 14.9799 102.169 14.3011 101.761 13.826C101.354 13.3509 100.766 13.1134 99.9966 13.1134C99.2727 13.1134 98.7071 13.3509 98.2998 13.826C97.8926 14.2785 97.689 14.9459 97.689 15.8283V27.706C97.689 29.4933 98.4695 30.3869 100.031 30.3869C100.777 30.3869 101.354 30.172 101.761 29.7421C102.169 29.3123 102.372 28.6449 102.372 27.7399V15.8622Z" fill="#FFFEFA"></path><path d="M120.301 33V20.5454C120.301 19.1653 120.335 17.5364 120.403 15.6586H120.267L116.466 33H113.649L109.848 15.6586H109.713C109.781 17.5364 109.815 19.1653 109.815 20.5454V33H107.1V10.4663H111.715L115.041 26.9933H115.176L118.502 10.4663H123.016V33H120.301Z" fill="#FFFEFA"></path><path d="M135.417 27.5702C135.417 29.4707 134.954 30.8847 134.026 31.8123C133.121 32.7398 131.82 33.2036 130.123 33.2036C128.359 33.2036 127.012 32.7172 126.085 31.7444C125.18 30.7489 124.727 29.3349 124.727 27.5024V16.0658C124.727 14.2333 125.191 12.8079 126.119 11.7899C127.069 10.7718 128.393 10.2627 130.089 10.2627C131.786 10.2627 133.098 10.7831 134.026 11.8238C134.954 12.8645 135.417 14.3011 135.417 16.1337V27.5702ZM132.431 15.8622C132.431 14.9799 132.227 14.3011 131.82 13.826C131.413 13.3509 130.825 13.1134 130.055 13.1134C129.331 13.1134 128.766 13.3509 128.359 13.826C127.951 14.2785 127.748 14.9459 127.748 15.8283V27.706C127.748 29.4933 128.528 30.3869 130.089 30.3869C130.836 30.3869 131.413 30.172 131.82 29.7421C132.227 29.3123 132.431 28.6449 132.431 27.7399V15.8622Z" fill="#FFFEFA"></path><path d="M137.158 33V10.4663H143.301C144.862 10.4663 145.959 10.8623 146.593 11.6541C147.249 12.446 147.577 13.5545 147.577 14.9799V17.2875C147.577 19.3916 146.819 20.6246 145.303 20.9866V21.1223C146.163 21.2807 146.808 21.6427 147.238 22.2083C147.667 22.7513 147.882 23.6336 147.882 24.8553V29.1313C147.882 30.4209 147.566 31.3937 146.932 32.0498C146.321 32.6833 145.258 33 143.742 33H137.158ZM144.862 24.6517C144.862 23.8599 144.692 23.2943 144.353 22.9549C144.036 22.6155 143.493 22.4458 142.724 22.4458H140.145V30.353H142.826C143.55 30.353 144.07 30.172 144.387 29.81C144.704 29.448 144.862 28.9051 144.862 28.1811V24.6517ZM144.726 15.421C144.726 14.6518 144.579 14.0749 144.285 13.6903C144.014 13.3057 143.493 13.1134 142.724 13.1134H140.145V19.9006H142.758C143.346 19.9006 143.821 19.7309 144.183 19.3916C144.545 19.0522 144.726 18.4527 144.726 17.593V15.421Z" fill="#FFFEFA"></path></svg> 