<?xml version="1.0" encoding="UTF-8"?> <svg xmlns="http://www.w3.org/2000/svg" width="127" height="75" viewBox="0 0 127 75" fill="none"><path fill-rule="evenodd" clip-rule="evenodd" d="M91.5689 71.3508C102.908 71.6222 114.495 71.0794 125.337 74.9286C125.983 75.1556 126.694 74.825 126.928 74.1835C127.157 73.5419 126.824 72.8362 126.177 72.6043C115.082 68.6662 103.231 69.1597 91.6285 68.8833C90.9425 68.8636 90.3709 69.4064 90.356 70.0875C90.3361 70.7685 90.8829 71.3311 91.5689 71.3508Z" fill="#FA4604"></path><path fill-rule="evenodd" clip-rule="evenodd" d="M90.5498 55.0078C94.0843 51.7794 97.9418 49.3608 102.605 48.1621C103.271 47.9913 103.668 47.3177 103.499 46.6584C103.325 45.9991 102.644 45.6028 101.983 45.7736C96.9128 47.0764 92.7122 49.683 88.8696 53.1913C88.3626 53.6522 88.3278 54.4334 88.7951 54.9348C89.2574 55.4357 90.0478 55.4687 90.5498 55.0078Z" fill="#FA4604"></path><path fill-rule="evenodd" clip-rule="evenodd" d="M80.7173 19.7606C82.3379 14.2459 85.5293 9.93174 90.4208 6.81631C90.9974 6.44866 91.1664 5.68474 90.7936 5.11179C90.4258 4.53885 89.6552 4.37203 89.0786 4.73969C83.6651 8.18921 80.1257 12.9633 78.3312 19.0693C78.1373 19.7226 78.5201 20.4086 79.1763 20.5991C79.8375 20.7901 80.5284 20.414 80.7173 19.7606Z" fill="#FA4604"></path><path fill-rule="evenodd" clip-rule="evenodd" d="M24.8676 12.2764C23.9032 13.4031 23.0382 14.6171 22.3025 15.9095C21.9744 16.4849 21.3978 17.7078 21.3083 18.7565C21.2089 19.8738 21.5916 20.8164 22.5759 21.3128C23.8833 21.9711 24.9272 21.9025 25.7325 21.5043C26.508 21.1218 27.1144 20.3702 27.4972 19.3625C28.228 17.4364 28.1186 14.4927 27.7358 12.8129C28.7648 11.7588 29.8933 10.8029 31.1012 9.95306C40.0988 3.624 53.2969 5.95774 63.4528 15.421C67.0071 18.7343 68.7171 25.6926 69.6069 33.2001C70.9938 44.8895 70.2034 57.9454 70.0941 61.7704C70.0692 62.715 70.1587 63.2756 70.2084 63.3876C70.442 63.9383 70.8546 64.0814 71.143 64.1357C71.5605 64.2097 71.8935 64.1308 72.162 63.9926C72.5249 63.8031 72.8232 63.4695 72.9624 62.9548C73.0369 62.6705 73.0568 62.2748 73.0468 61.8528C73.0369 61.5602 72.9772 61.2404 73.0369 61.0307C73.4246 59.6874 73.8919 58.3757 74.3493 57.0546C75.8754 52.6136 77.8489 48.452 80.0411 44.2953C87.0056 31.0874 93.7413 17.1319 105.16 7.06909C105.672 6.61754 105.722 5.83684 105.264 5.32755C104.812 4.81826 104.026 4.77187 103.509 5.22391C91.8622 15.4856 84.9425 29.6815 77.8389 43.1509C75.9748 46.6868 74.2647 50.2276 72.843 53.9313C72.9872 47.3796 72.9325 38.3107 71.7245 30.2865C70.6508 23.1501 68.6077 16.8432 65.1528 13.6222C54.0276 3.25536 39.5172 1.00652 29.6646 7.94011C28.6107 8.68232 27.6066 9.49858 26.6721 10.3839C21.5171 1.14323 10.4814 -2.56046 0.728176 1.85927C0.101825 2.14204 -0.171578 2.87439 0.111772 3.49373C0.400092 4.11306 1.13578 4.38647 1.76213 4.10369C10.5509 0.1212 20.5179 3.67533 24.8676 12.2764ZM25.5883 15.3701C25.1857 15.9347 24.8129 16.52 24.4649 17.125C24.281 17.4497 23.9628 18.074 23.8286 18.685C23.7988 18.8281 23.7938 19.0521 23.7938 19.1557C24.1368 19.3235 24.4052 19.4045 24.6239 19.2954C24.8973 19.1612 25.0366 18.8453 25.1708 18.4925C25.5088 17.6072 25.6182 16.4336 25.5883 15.3701Z" fill="#FA4604"></path></svg> 