<?xml version="1.0" encoding="UTF-8"?> <svg xmlns="http://www.w3.org/2000/svg" width="69" height="66" viewBox="0 0 69 66" fill="none"><g clip-path="url(#clip0_10556_713)"><path d="M5.36004 33.1197C4.83423 28.7028 5.55793 24.1241 7.55766 20.1545C8.5387 18.2113 9.92892 16.467 11.4755 14.9441C13.0802 13.3769 14.898 12.0409 16.845 10.9257C20.9128 8.58897 25.581 7.44127 30.2328 7.0416C32.5358 6.83974 34.8521 6.83082 37.1532 7.06825C39.4247 7.2967 41.6302 7.84053 43.7866 8.57822C45.9348 9.31839 48.0021 10.3247 49.9653 11.4609C51.9581 12.6061 53.8255 13.9592 55.5609 15.4685C56.656 16.4277 57.6666 17.493 58.5689 18.6446C59.4688 19.788 60.1972 21.0457 60.8263 22.3603C61.4686 23.6888 61.932 25.1071 62.2156 26.5527C62.3487 27.202 62.4129 27.89 62.353 28.5527C62.3062 29.1398 62.2176 29.7665 61.9366 30.2899C61.5468 31.0163 60.6111 31.2984 59.8847 30.9085C59.1797 30.5301 58.8935 29.6404 59.2316 28.9207L59.2374 28.9101C59.2611 28.8402 59.2741 28.7646 59.2953 28.6866C59.3124 28.565 59.327 28.4353 59.3359 28.3163C59.3364 28.1102 59.3312 27.9147 59.3236 27.7111C59.2746 27.3409 59.2093 26.9755 59.1357 26.6127C58.9928 26.02 58.8032 25.4505 58.6054 24.8833C58.3376 24.203 58.0394 23.5408 57.7002 22.8909C57.3215 22.1992 56.915 21.5339 56.4617 20.8916C55.9838 20.2567 55.4804 19.6563 54.9385 19.0765C54.9887 19.124 55.0306 19.1741 55.0783 19.2134C54.3465 18.4491 53.5671 17.735 52.7565 17.0661C51.6755 16.1833 50.5356 15.3719 49.353 14.6271C48.0364 13.8243 46.6905 13.1019 45.2937 12.4485C45.3471 12.4772 45.4087 12.5034 45.4703 12.5296C44.2174 11.9672 42.9464 11.464 41.6321 11.0544C41.6912 11.0724 41.7529 11.0985 41.8202 11.114C40.7663 10.7961 39.7001 10.5266 38.6184 10.3244C38.6102 10.3269 38.5995 10.3212 38.5888 10.3154C37.3741 10.1176 36.1357 9.98952 34.9007 9.93209C33.389 9.8775 31.8741 9.9313 30.3651 10.0639C28.6763 10.2239 27.0007 10.4873 25.3409 10.8624C24.1556 11.1481 22.9901 11.4995 21.842 11.9083C20.8218 12.2964 19.8322 12.756 18.8632 13.2541C17.8794 13.7924 16.9236 14.394 16.0098 15.0455C16.0262 15.0406 16.0319 15.0299 16.0459 15.0168C15.2617 15.5935 14.5251 16.2094 13.8117 16.8722C13.2147 17.4462 12.6465 18.0562 12.1128 18.6917C12.1325 18.6679 12.144 18.6465 12.1661 18.6309C11.6964 19.2112 11.2612 19.817 10.8581 20.4399C10.5107 21.0103 10.1954 21.5977 9.91788 22.1918C9.60189 22.8959 9.34256 23.6098 9.09888 24.3459C8.85858 25.1525 8.66671 25.9715 8.51265 26.7969C8.36523 27.6741 8.27451 28.561 8.22974 29.452C8.20308 30.3733 8.22563 31.2797 8.29669 32.1985C8.40733 33.2485 8.5804 34.2977 8.80269 35.332C8.80022 35.3238 8.79774 35.3156 8.79774 35.3156C8.80269 35.332 8.81011 35.3566 8.81506 35.373C8.82001 35.3894 8.82496 35.4058 8.82743 35.4141C8.82496 35.4058 8.82249 35.3977 8.81754 35.3812C9.08842 36.5173 9.43563 37.6393 9.82963 38.7382C10.3166 39.9971 10.875 41.2255 11.513 42.421C12.2679 43.7962 13.0949 45.1138 14.0155 46.3852C14.8143 47.4606 15.6573 48.5048 16.5701 49.4831C17.1679 50.0998 17.7993 50.6794 18.4585 51.2327C19.1556 51.7926 19.8781 52.318 20.64 52.7957C20.6293 52.7899 20.6185 52.7842 20.5972 52.7727C21.3409 53.22 22.1158 53.6221 22.9079 53.9922C23.8905 54.4301 24.8854 54.8196 25.9089 55.1557C27.1724 55.5448 28.4406 55.8609 29.7383 56.0964C30.7666 56.2699 31.7939 56.381 32.8417 56.4411C33.9823 56.4823 35.122 56.461 36.2558 56.3609C37.6647 56.2227 39.0734 55.9949 40.468 55.6909C40.4598 55.6933 40.4516 55.6958 40.4434 55.6983C40.4763 55.6884 40.5009 55.681 40.5362 55.6793C40.5526 55.6743 40.569 55.6694 40.5936 55.6619C40.5854 55.6644 40.5772 55.6669 40.5608 55.6719C42.0055 55.3258 43.4197 54.9084 44.8149 54.3982C44.7517 54.4262 44.686 54.4461 44.6228 54.4741C45.6979 54.0604 46.7475 53.5917 47.769 53.0599C48.5296 52.6425 49.259 52.1809 49.9785 51.6864C50.6183 51.2249 51.2293 50.7273 51.8091 50.1854C52.2421 49.7504 52.6619 49.3015 53.066 48.8305C53.4767 48.3216 53.8529 47.7874 54.2159 47.2392C54.555 46.6714 54.8704 46.0839 55.1537 45.4791C55.4148 44.89 55.6439 44.2837 55.8352 43.6709C56.0583 42.8963 56.2379 42.1259 56.3797 41.3489L56.3772 41.3407C56.3805 41.3218 56.3862 41.3111 56.3837 41.3029C56.3837 41.3029 56.3862 41.3111 56.378 41.3136C56.3755 41.3054 56.3812 41.2947 56.3812 41.2947C56.3877 41.2569 56.4 41.2084 56.404 41.1625C56.3975 41.2002 56.391 41.238 56.3845 41.2758C56.5262 40.4093 56.6137 39.5413 56.6634 38.6667C56.699 37.7158 56.6723 36.7658 56.5913 35.8143C56.4957 34.903 56.3647 33.9933 56.1738 33.0928C55.7336 31.2468 55.1161 29.4363 54.5282 27.6347C54.2742 26.8517 54.7632 25.979 55.5429 25.7439C56.3473 25.5014 57.1798 25.9757 57.4337 26.7587C57.8048 27.9004 58.1677 29.0445 58.5305 30.1887C59.1795 32.2225 59.5412 34.3429 59.6829 36.476C59.8321 38.7232 59.5815 41.0103 59.0894 43.2091C58.6161 45.3217 57.7419 47.3223 56.585 49.1574C54.1351 53.0298 50.089 55.6465 45.8715 57.2493C41.5965 58.8695 36.9624 59.6846 32.4017 59.4659C30.1213 59.3565 27.8618 58.9006 25.6751 58.2705C23.5262 57.647 21.4386 56.7811 19.491 55.667C15.5852 53.4332 12.5702 49.9369 10.1756 46.1819C8.53814 43.6313 7.21892 40.8594 6.34293 37.9539C5.89738 36.387 5.55362 34.7715 5.36004 33.1197Z" fill="#FA4604"></path><path d="M40.5871 55.6997L40.5789 55.7022C40.5764 55.694 40.5846 55.6915 40.5871 55.6997Z" fill="#FA4604"></path><path d="M56.41 41.3308C56.4125 41.339 56.4067 41.3496 56.4035 41.3685C56.4067 41.3496 56.4043 41.3414 56.41 41.3308Z" fill="#FA4604"></path><path d="M27.1343 43.9253C27.7058 43.2963 28.3825 42.7789 29.0436 42.2394C29.68 41.7072 30.3058 41.1694 30.9447 40.6454C31.3614 40.3049 31.7649 39.9505 32.189 39.6346C33.1569 38.8951 34.1791 38.2467 35.2375 37.659C36.1335 37.156 37.0443 36.7024 37.9477 36.2241C38.7411 35.7968 39.5107 35.3499 40.2523 34.8398C40.4713 34.6752 40.6878 34.5025 40.8912 34.3159C41.0281 34.1761 41.1511 34.0494 41.2774 33.9039C41.3028 33.8694 41.334 33.8242 41.3594 33.7897C41.3708 33.7683 41.3741 33.7495 41.388 33.7363C41.3756 33.6953 41.3526 33.6485 41.332 33.6099C41.0711 33.1603 40.7905 32.7345 40.4911 32.3055C39.7392 31.2965 38.9898 30.2958 38.224 29.3C37.4869 28.3403 36.786 27.3519 36.0769 26.3658C35.7173 25.8564 35.3857 25.3207 35.0426 24.8063C34.7439 24.3502 34.4452 23.8941 34.1629 23.433C33.5071 22.3862 32.8594 21.3368 32.2118 20.2875C31.8819 19.8766 31.7711 19.3011 31.9675 18.7942C32.2612 18.0162 33.1483 17.6324 33.9238 17.9179C34.4094 18.1028 34.6817 18.531 34.9434 18.9535C35.1895 19.3539 35.4355 19.7543 35.6816 20.1547C36.1762 20.9636 36.6765 21.7619 37.185 22.5577C38.1339 24.0713 39.1959 25.515 40.2415 26.9637C40.2078 26.9112 40.1659 26.8611 40.1296 26.8004C40.6758 27.5132 41.2302 28.2235 41.7707 28.947C42.1203 29.4236 42.4782 29.8977 42.8278 30.3743C43.0836 30.718 43.3255 31.0749 43.5592 31.4342C43.9097 31.9732 44.2299 32.5303 44.3662 33.1607C44.5967 34.1925 44.1998 35.1628 43.5342 35.9544C42.7283 36.9047 41.6717 37.6173 40.5985 38.2453C39.5172 38.8757 38.3971 39.4372 37.2902 40.0127C36.3475 40.5387 35.4179 41.0786 34.5402 41.7014C33.6256 42.3801 32.7579 43.1252 31.8877 43.8621C31.1897 44.4576 30.4736 45.0226 29.7757 45.6181C29.6387 45.7579 29.4994 45.8894 29.3624 46.0292C28.8131 46.6425 27.8171 46.6652 27.2202 46.111C27.0221 45.929 26.8822 45.7025 26.8055 45.4481C26.6446 44.9146 26.7588 44.3429 27.1343 43.9253Z" fill="#FA4604"></path></g><defs><clipPath id="clip0_10556_713"><rect width="68.27" height="65.84" fill="white"></rect></clipPath></defs></svg> 