<?xml version="1.0" encoding="UTF-8"?> <svg xmlns="http://www.w3.org/2000/svg" width="102" height="102" viewBox="0 0 102 102" fill="none"><path d="M91.1587 51.3527L98.8128 52.421L98.6427 53.64L92.1367 52.7319L91.7687 55.3683L98.2747 56.2764L98.1046 57.4954L91.5986 56.5873L91.2316 59.2167L97.7376 60.1247L97.5675 61.3437L89.9133 60.2754L91.1587 51.3527Z" fill="#FFFEFA"></path><path d="M87.8875 65.5054C88.1867 64.798 88.6053 64.2551 89.1435 63.8767C89.6798 63.5027 90.2899 63.2971 90.9738 63.26C91.6577 63.223 92.3665 63.3596 93.1002 63.67C93.8472 63.9859 94.4424 64.4034 94.8858 64.9225C95.3293 65.4415 95.5983 66.0241 95.6928 66.6701C95.7917 67.318 95.6944 67.989 95.4007 68.6832C95.0997 69.395 94.6801 69.9401 94.1419 70.3185C93.6081 70.6987 93.0002 70.9052 92.3182 70.9379C91.6387 70.9768 90.9321 70.8411 90.1984 70.5308C89.4558 70.2167 88.8597 69.8014 88.41 69.2849C87.9647 68.7702 87.6903 68.188 87.587 67.5382C87.4881 66.8904 87.5883 66.2127 87.8875 65.5054ZM89.0013 65.9765C88.6891 66.7146 88.7028 67.3679 89.0425 67.9363C89.3822 68.5047 89.9431 68.9543 90.7252 69.2851C91.5293 69.6252 92.2457 69.7133 92.8744 69.5493C93.5076 69.3872 93.9784 68.9415 94.2869 68.2121C94.4969 67.7156 94.5577 67.2596 94.4693 66.8441C94.3809 66.4286 94.1724 66.0581 93.8439 65.7327C93.5153 65.4072 93.0918 65.1349 92.5734 64.9156C91.7737 64.5774 91.0542 64.4906 90.4148 64.6552C89.7754 64.8199 89.3042 65.2603 89.0013 65.9765Z" fill="#FFFEFA"></path><path d="M82.0388 70.2438L84.446 73.8442L83.4611 73.1544L92.1607 75.3059L91.3735 76.3881L84.417 74.6018L84.6864 74.2314L88.6248 80.1668L87.8629 81.2143L81.3106 71.2449L82.0388 70.2438Z" fill="#FFFEFA"></path><path d="M77.3686 80.6504C77.9173 80.1762 78.4962 79.9123 79.1056 79.8586C79.718 79.8085 80.3229 79.932 80.9202 80.2292C81.517 80.5331 82.0666 80.9756 82.5688 81.5567C83.0773 82.145 83.437 82.7546 83.6481 83.3856C83.8556 84.0196 83.8871 84.6324 83.7426 85.2239C83.5944 85.8186 83.246 86.353 82.6974 86.8271C82.156 87.295 81.5734 87.5621 80.9496 87.6283C80.3254 87.7012 79.7074 87.5953 79.0956 87.3106C78.4839 87.0259 77.9253 86.5912 77.42 86.0065C76.9146 85.4218 76.5654 84.8061 76.3724 84.1596C76.1793 83.5131 76.161 82.8826 76.3173 82.2683C76.4732 81.6607 76.8236 81.1214 77.3686 80.6504ZM77.9539 75.8885L85.2532 84.3345L84.3924 85.0785L80.6725 80.7743L80.5642 80.8678L76.9847 76.7261L77.9539 75.8885ZM78.2504 81.4299C77.8642 81.7637 77.629 82.1372 77.5448 82.5505C77.4606 82.9637 77.4988 83.391 77.6595 83.8322C77.8233 84.2771 78.0845 84.7071 78.4432 85.1221C78.7989 85.5336 79.1833 85.8508 79.5966 86.0737C80.0063 86.2997 80.4254 86.3978 80.8537 86.3682C81.2784 86.3416 81.6893 86.1567 82.0863 85.8136C82.4653 85.4861 82.6982 85.1208 82.785 84.7179C82.875 84.3186 82.8378 83.8999 82.6736 83.4617C82.5124 83.0272 82.2447 82.5934 81.8704 82.1603C81.5023 81.7344 81.1136 81.405 80.7044 81.1723C80.2947 80.9463 79.8809 80.8468 79.4629 80.8739C79.048 80.9046 78.6439 81.0899 78.2504 81.4299Z" fill="#FFFEFA"></path><path d="M70.7222 94.4875L67.1402 87.6394L68.2308 87.0689L70.8709 92.1163L71.8198 85.1917L72.7519 84.7042L76.3338 91.5523L75.2432 92.1228L72.6396 87.1452L71.6479 94.0033L70.7222 94.4875Z" fill="#FFFEFA"></path><path d="M65.5522 88.519L65.8346 89.5768C65.5445 89.6 65.3372 89.6652 65.2128 89.7724C65.085 89.8855 65.0105 90.0412 64.9893 90.2394C64.9648 90.4435 64.9664 90.6899 64.9941 90.9788C65.0326 91.4376 65.0962 91.944 65.1849 92.498C65.2689 93.0533 65.3734 93.6574 65.4983 94.3104C65.6198 94.9692 65.7583 95.6729 65.9137 96.4215L60.6937 97.8148L58.7006 90.3479L59.9313 90.0194L61.6125 96.3179L64.4817 95.552C64.3962 95.1206 64.3145 94.6758 64.2366 94.2176C64.1542 93.7607 64.0771 93.3146 64.0054 92.8795C63.9349 92.449 63.8764 92.0449 63.8299 91.6673C63.7801 91.2954 63.7477 90.9708 63.7329 90.6933C63.6999 90.2182 63.7255 89.8238 63.8096 89.51C63.8949 89.2009 64.0747 88.9677 64.3487 88.8106C64.6216 88.6489 65.0227 88.5517 65.5522 88.519Z" fill="#FFFEFA"></path><path d="M42.2171 92.9436C42.5477 93.0172 42.831 93.1609 43.0669 93.3746C43.2981 93.5874 43.4662 93.8423 43.5711 94.1393C43.6703 94.44 43.6832 94.7556 43.6096 95.0863C43.536 95.4169 43.3905 95.6973 43.1731 95.9275C42.951 96.1566 42.6907 96.3162 42.3921 96.4061C42.0878 96.4997 41.7704 96.5096 41.4398 96.436C41.1324 96.3676 40.8655 96.2276 40.6389 96.0159C40.4113 95.8088 40.2502 95.5555 40.1556 95.2558C40.0564 94.9552 40.0435 94.6395 40.1171 94.3089C40.1907 93.9783 40.3362 93.6979 40.5536 93.4677C40.7653 93.2411 41.0187 93.08 41.3136 92.9844C41.6086 92.8888 41.9098 92.8752 42.2171 92.9436Z" fill="#FFFEFA"></path><path d="M27.841 84.2967L22.682 90.0511L21.7656 89.2295L26.1507 84.3383L24.1686 82.5613L19.7835 87.4525L18.8671 86.6309L23.2522 81.7397L21.2754 79.9675L16.8904 84.8587L15.9739 84.0371L21.1328 78.2828L27.841 84.2967Z" fill="#FFFEFA"></path><path d="M17.9305 73.6831C18.3522 74.325 18.5709 74.9748 18.5863 75.6325C18.5992 76.2863 18.4309 76.9077 18.0817 77.4968C17.7324 78.0859 17.2249 78.5992 16.559 79.0367C15.8813 79.4821 15.2034 79.7448 14.5254 79.825C13.8474 79.9051 13.2136 79.805 12.624 79.5245C12.0305 79.2466 11.5267 78.7927 11.1128 78.1628C10.6884 77.5169 10.4685 76.8651 10.4531 76.2074C10.4336 75.5523 10.5998 74.9322 10.9517 74.3471C11.297 73.7606 11.8026 73.2486 12.4684 72.8111C13.1422 72.3684 13.8187 72.1036 14.4981 72.0169C15.1735 71.9327 15.8099 72.0283 16.4075 72.3035C17.001 72.5814 17.5087 73.0412 17.9305 73.6831ZM16.9198 74.3472C16.4797 73.6774 15.9289 73.3258 15.2676 73.2922C14.6062 73.2587 13.9207 73.4751 13.2111 73.9414C12.4815 74.4208 12.0101 74.9674 11.7969 75.5813C11.5798 76.1977 11.6886 76.8369 12.1235 77.4987C12.4195 77.9492 12.7648 78.2532 13.1594 78.4107C13.554 78.5681 13.9778 78.6007 14.431 78.5085C14.8841 78.4162 15.3459 78.2155 15.8164 77.9064C16.542 77.4296 17.014 76.8797 17.2325 76.2566C17.451 75.6336 17.3468 74.9971 16.9198 74.3472Z" fill="#FFFEFA"></path><path d="M17.26 66.2124L12.929 66.2075L14.0503 65.7735L7.41974 71.8023L6.95906 70.5459L12.3159 65.7616L12.4735 66.1916L5.35037 66.1588L4.90447 64.9427L16.8338 65.0501L17.26 66.2124Z" fill="#FFFEFA"></path><path d="M11.2322 56.5751C11.3187 57.2951 11.2138 57.9227 10.9177 58.4579C10.6169 58.9937 10.1763 59.4262 9.59597 59.7553C9.01035 60.0803 8.33625 60.2885 7.57366 60.3801C6.8016 60.4728 6.09499 60.4303 5.45384 60.2526C4.81211 60.0701 4.28643 59.7537 3.87679 59.3031C3.46658 58.8479 3.21826 58.2603 3.13184 57.5403C3.04655 56.8298 3.15082 56.1975 3.44465 55.6433C3.73318 55.0849 4.16646 54.6317 4.7445 54.2836C5.32254 53.9356 5.99522 53.7155 6.76254 53.6234C7.52987 53.5313 8.23553 53.5859 8.87953 53.7873C9.52352 53.9886 10.0565 54.3258 10.4785 54.7989C10.8951 55.2678 11.1464 55.8599 11.2322 56.5751ZM14.8533 59.7224L3.76973 61.0529L3.63412 59.9233L9.28248 59.2452L9.26542 59.1031L14.7006 58.4506L14.8533 59.7224ZM10.0929 56.8704C10.0321 56.3636 9.85385 55.9598 9.55827 55.6589C9.26269 55.3581 8.88707 55.1509 8.43141 55.0374C7.971 54.9245 7.46845 54.9008 6.92374 54.9662C6.38377 55.031 5.90586 55.1725 5.49 55.3906C5.07356 55.6039 4.75793 55.8965 4.54309 56.2682C4.32769 56.6352 4.25126 57.0792 4.31381 57.6002C4.37351 58.0976 4.54613 58.4949 4.83167 58.7921C5.11247 59.0899 5.48041 59.2932 5.93551 59.402C6.38587 59.5113 6.89525 59.5318 7.46363 59.4636C8.02255 59.3965 8.51288 59.2583 8.93461 59.0491C9.35104 58.8358 9.66488 58.5483 9.87611 58.1866C10.0826 57.8254 10.1549 57.3867 10.0929 56.8704Z" fill="#FFFEFA"></path><path d="M3.47481 43.2015L11.1549 44.0636L11.0176 45.2868L5.35709 44.6514L10.5658 49.3117L10.4484 50.3571L2.76835 49.4949L2.90565 48.2718L8.48794 48.8984L3.35826 44.2398L3.47481 43.2015Z" fill="#FFFEFA"></path><path d="M11.2943 42.2941L10.2594 41.9366C10.4025 41.6832 10.4644 41.4749 10.445 41.3117C10.4227 41.1425 10.3354 40.9937 10.1829 40.8653C10.0274 40.7309 9.82224 40.5943 9.56727 40.4558C9.1654 40.2311 8.71003 40.0006 8.20117 39.7642C7.69386 39.5234 7.13462 39.2721 6.52344 39.0105C5.90931 38.7428 5.24853 38.464 4.5411 38.1742L6.30538 33.0677L13.61 35.5914L13.1941 36.7953L7.03248 34.6665L6.06271 37.4734C6.46819 37.6438 6.88261 37.8248 7.30597 38.0165C7.73088 38.2037 8.14375 38.3892 8.54456 38.5731C8.94086 38.7555 9.30855 38.933 9.64763 39.1056C9.98376 39.2722 10.271 39.427 10.5093 39.5699C10.9216 39.8083 11.2343 40.05 11.4473 40.2953C11.6559 40.5389 11.7486 40.8183 11.7256 41.1333C11.7071 41.45 11.5633 41.8369 11.2943 42.2941Z" fill="#FFFEFA"></path><path d="M20.6123 20.5258C20.366 20.7582 20.0881 20.9121 19.7788 20.9875C19.473 21.0596 19.1677 21.0558 18.8629 20.9761C18.5583 20.8896 18.2898 20.7232 18.0574 20.4768C17.8249 20.2304 17.6744 19.9527 17.6058 19.6436C17.5406 19.3312 17.5545 19.0262 17.6476 18.7286C17.7408 18.4242 17.9106 18.1558 18.1569 17.9233C18.3859 17.7073 18.6516 17.5648 18.954 17.496C19.2531 17.4237 19.5532 17.4324 19.8543 17.5222C20.1589 17.6086 20.4274 17.775 20.6598 18.0214C20.8923 18.2678 21.0428 18.5455 21.1114 18.8546C21.1803 19.157 21.1715 19.4571 21.0853 19.7549C20.999 20.0527 20.8413 20.3097 20.6123 20.5258Z" fill="#FFFEFA"></path><path d="M35.7795 13.3746L33.9001 5.87832L35.0939 5.579L36.6914 11.9509L39.2735 11.3035L37.676 4.93164L38.8698 4.63232L40.4674 11.0042L43.0425 10.3586L41.445 3.9867L42.6388 3.68738L44.5183 11.1837L35.7795 13.3746Z" fill="#FFFEFA"></path><path d="M50.148 11.0797C49.38 11.0678 48.7197 10.8835 48.167 10.5266C47.619 10.1699 47.1995 9.68153 46.9085 9.06156C46.6175 8.44158 46.4782 7.7333 46.4905 6.93671C46.503 6.12581 46.6666 5.41744 46.9813 4.81159C47.296 4.20574 47.735 3.73779 48.2984 3.40774C48.8618 3.07291 49.5203 2.91132 50.2739 2.92296C51.0467 2.93489 51.7094 3.11927 52.2621 3.4761C52.8149 3.82816 53.2344 4.31414 53.5207 4.93403C53.8118 5.54924 53.9511 6.25513 53.9388 7.05172C53.9264 7.85786 53.7652 8.56627 53.4552 9.17696C53.1452 9.78288 52.7085 10.2556 52.145 10.5952C51.5816 10.9301 50.916 11.0915 50.148 11.0797ZM50.1667 9.87048C50.968 9.88285 51.5684 9.62494 51.9678 9.09674C52.3672 8.56854 52.5734 7.8799 52.5865 7.03084C52.6 6.15793 52.4128 5.46084 52.0248 4.93956C51.6369 4.41352 51.0471 4.14438 50.2553 4.13216C49.7163 4.12383 49.2708 4.23862 48.9188 4.47651C48.5668 4.71441 48.3017 5.04668 48.1233 5.47333C47.945 5.89998 47.8515 6.39473 47.8428 6.95759C47.8294 7.82573 48.019 8.52525 48.4115 9.05614C48.8041 9.58703 49.3892 9.85847 50.1667 9.87048Z" fill="#FFFEFA"></path><path d="M56.8185 14.6955L59.2576 11.1167L58.986 12.288L57.7285 3.41498L59.0265 3.7404L59.9711 10.8603L59.5268 10.7489L63.559 4.87677L64.8153 5.19175L58.0193 14.9965L56.8185 14.6955Z" fill="#FFFEFA"></path><path d="M68.2788 15.1425C67.635 14.8088 67.1752 14.369 66.8993 13.823C66.6257 13.2728 66.5161 12.6652 66.5706 12.0003C66.6316 11.3334 66.8388 10.6589 67.1922 9.97704C67.5501 9.28667 67.9828 8.72649 68.4905 8.29648C69.0025 7.86866 69.5599 7.61221 70.1628 7.52711C70.77 7.44421 71.3955 7.56961 72.0393 7.90332C72.6746 8.23263 73.1386 8.67466 73.4314 9.22942C73.7306 9.78214 73.8614 10.3954 73.8238 11.0691C73.7863 11.7428 73.5897 12.4227 73.234 13.1088C72.8784 13.7949 72.4361 14.3475 71.9072 14.7666C71.3784 15.1856 70.7997 15.4364 70.1712 15.519C69.5491 15.5995 68.9183 15.4741 68.2788 15.1425ZM63.6394 16.3648L68.7766 6.45393L69.7868 6.97754L67.1687 12.0282L67.2958 12.0941L64.7766 16.9542L63.6394 16.3648ZM68.6758 14.0345C69.1289 14.2695 69.5631 14.3494 69.9781 14.2744C70.3931 14.1993 70.7757 14.0054 71.126 13.6926C71.4784 13.3755 71.7808 12.9735 72.0333 12.4864C72.2836 12.0036 72.4356 11.5289 72.4893 11.0624C72.5473 10.5981 72.4831 10.1726 72.2967 9.78578C72.1145 9.4012 71.7905 9.08816 71.3246 8.84666C70.8799 8.61614 70.4543 8.53526 70.0479 8.60402C69.6437 8.66854 69.2686 8.85831 68.9226 9.17332C68.5788 9.4841 68.2752 9.89361 68.0118 10.4019C67.7527 10.9016 67.591 11.3847 67.5266 11.851C67.4686 12.3153 67.5297 12.7366 67.7098 13.1147C67.8921 13.4886 68.2141 13.7952 68.6758 14.0345Z" fill="#FFFEFA"></path><path d="M83.6736 16.2292L78.6415 22.0948L77.7073 21.2934L81.4162 16.9702L74.6333 18.6562L73.835 17.9712L78.8671 12.1057L79.8012 12.9071L76.1436 17.1705L82.8807 15.5489L83.6736 16.2292Z" fill="#FFFEFA"></path><path d="M80.0325 23.222L80.9084 22.5651C81.0382 22.8256 81.1761 22.9935 81.322 23.0689C81.4747 23.1452 81.6469 23.1562 81.8387 23.1018C82.0371 23.0483 82.2652 22.9548 82.5228 22.8213C82.934 22.6142 83.3801 22.3662 83.8609 22.0771C84.3447 21.7918 84.8661 21.4693 85.4252 21.1096C85.991 20.7509 86.5921 20.3597 87.2285 19.9361L90.4701 24.2582L84.2874 28.8952L83.5231 27.8762L88.7384 23.9648L86.9566 21.5891C86.5883 21.8295 86.2062 22.0714 85.8102 22.3147C85.4171 22.5618 85.0321 22.7998 84.6552 23.0288C84.2822 23.2549 83.9292 23.4601 83.5962 23.6442C83.2699 23.8293 82.9808 23.9805 82.7289 24.0979C82.3005 24.3059 81.925 24.4294 81.6025 24.4685C81.2839 24.5048 81.0005 24.4251 80.7524 24.2295C80.5005 24.0368 80.2606 23.701 80.0325 23.222Z" fill="#FFFEFA"></path><path d="M91.5505 38.0024C91.4557 37.6773 91.4452 37.3598 91.5189 37.0501C91.594 36.745 91.7364 36.4749 91.9461 36.2399C92.1618 36.0081 92.4323 35.8448 92.7574 35.75C93.0826 35.6553 93.3984 35.6477 93.7049 35.7273C94.0127 35.8115 94.2779 35.9628 94.5005 36.1812C94.7291 36.4028 94.8907 36.6762 94.9855 37.0013C95.0736 37.3036 95.0795 37.605 95.0031 37.9056C94.9313 38.2048 94.7868 38.468 94.5698 38.6952C94.3542 38.927 94.0837 39.0903 93.7585 39.1851C93.4334 39.2798 93.1175 39.2874 92.8111 39.2078C92.5106 39.1314 92.2474 38.9869 92.0215 38.7745C91.7956 38.5621 91.6386 38.3047 91.5505 38.0024Z" fill="#FFFEFA"></path></svg> 